<svg width="216" height="148" viewBox="0 0 216 148" fill="none" xmlns="http://www.w3.org/2000/svg">
<path d="M173.5 132C196.972 132 216 112.972 216 89.5C216 73.0509 206.655 58.7845 192.985 51.7198C192.305 23.0402 168.843 0 140 0C116.73 0 96.9622 14.9969 89.8352 35.853C85.7664 34.02 81.2523 33 76.5 33C60.806 33 47.7102 44.1239 44.6671 58.9172C42.0413 58.317 39.3077 58 36.5 58C16.3416 58 0 74.3416 0 94.5C0 114.658 16.3416 131 36.5 131C42.3558 131 47.8896 129.621 52.7943 127.17C55.2539 135.734 63.1452 142 72.5 142C79.4538 142 85.5989 138.538 89.3055 133.243C98.8286 142.383 111.758 148 126 148C141.32 148 155.121 141.5 164.797 131.108C167.606 131.693 170.517 132 173.5 132Z" fill="white"/>
</svg>
