<svg width="526" height="186" viewBox="0 0 526 186" fill="none" xmlns="http://www.w3.org/2000/svg">
<path d="M224.5 180C231.454 180 237.599 176.538 241.306 171.243C250.829 180.383 263.758 186 278 186C293.32 186 307.121 179.5 316.797 169.108C319.606 169.693 322.517 170 325.5 170C342.155 170 356.573 160.419 363.542 146.469C373.042 155.475 385.876 161 400 161C414.242 161 427.171 155.383 436.694 146.243C440.401 151.538 446.546 155 453.5 155C462.855 155 470.746 148.734 473.206 140.17C478.11 142.621 483.644 144 489.5 144C509.658 144 526 127.658 526 107.5C526 87.3416 509.658 71 489.5 71C486.692 71 483.959 71.317 481.333 71.9172C478.29 57.1239 465.194 46 449.5 46C444.748 46 440.234 47.02 436.165 48.853C429.038 27.9969 409.27 13 386 13C359.403 13 337.381 32.592 333.58 58.1317C323.873 45.868 308.855 38 292 38C268.73 38 248.962 52.9969 241.835 73.853C237.766 72.02 233.252 71 228.5 71C223.035 71 217.884 72.349 213.364 74.7323C209.669 64.7612 202.34 56.5542 192.985 51.7197C192.305 23.0402 168.843 0 140 0C116.73 0 96.9622 14.9969 89.8352 35.853C85.7664 34.02 81.2523 33 76.5 33C60.806 33 47.7102 44.1239 44.667 58.9172C42.0413 58.317 39.3076 58 36.5 58C16.3416 58 0 74.3416 0 94.5C0 114.658 16.3416 131 36.5 131C42.3558 131 47.8895 129.621 52.7942 127.17C55.2539 135.734 63.1451 142 72.5 142C79.4537 142 85.5989 138.538 89.3055 133.243C98.8286 142.383 111.758 148 126 148C135.826 148 145.028 145.326 152.917 140.666C156.625 156.893 171.149 169 188.5 169C194.356 169 199.89 167.621 204.794 165.17C207.254 173.734 215.145 180 224.5 180Z" fill="white"/>
</svg>
