<svg width="484" height="207" viewBox="0 0 484 207" fill="none" xmlns="http://www.w3.org/2000/svg">
<path d="M282.085 21.977C279.833 21.3405 277.456 21 275 21C269.576 21 264.539 22.6612 260.372 25.5025C254.926 17.9308 246.039 13 236 13C222.554 13 211.174 21.8456 207.362 34.0351C206.911 34.0118 206.457 34 206 34C192.303 34 181.079 44.5919 180.073 58.032C179.552 58.0107 179.027 58 178.5 58C172.368 58 166.575 59.4524 161.447 62.032C156.042 52.4613 145.775 46 134 46C117.471 46 103.915 58.7314 102.604 74.9231C100.168 73.6929 97.4151 73 94.5 73C89.1761 73 84.3921 75.3113 81.0966 78.9853C76.5938 75.2474 70.8094 73 64.5 73C50.7326 73 39.4644 83.7006 38.5587 97.2386C35.8466 96.4327 32.9738 96 30 96C13.4315 96 0 109.431 0 126C0 142.569 13.4315 156 30 156C31.7824 156 33.5286 155.845 35.2256 155.546C39.0126 176.282 57.1707 192 79 192C93.9365 192 107.154 184.641 115.225 173.351C122.861 186.872 137.365 196 154 196C173.293 196 189.718 183.723 195.889 166.555C201.614 170.011 208.325 172 215.5 172C223.147 172 230.267 169.741 236.228 165.854C243.021 176.182 254.714 183 268 183C275.175 183 281.886 181.011 287.611 177.555C293.782 194.723 310.207 207 329.5 207C346.135 207 360.639 197.872 368.275 184.351C376.346 195.641 389.564 203 404.5 203C426.329 203 444.487 187.282 448.274 166.546C449.971 166.845 451.718 167 453.5 167C470.069 167 483.5 153.569 483.5 137C483.5 120.431 470.069 107 453.5 107C450.526 107 447.653 107.433 444.941 108.239C444.036 94.7006 432.767 84 419 84C412.691 84 406.906 86.2474 402.403 89.9853C399.108 86.3113 394.324 84 389 84C386.771 84 384.638 84.405 382.668 85.1454C383.53 82.7586 384 80.1842 384 77.5C384 70.0577 380.387 63.4594 374.819 59.3636C375.588 56.7089 376 53.9026 376 51C376 34.4315 362.569 21 346 21C343.881 21 341.814 21.2197 339.819 21.6374C336.198 9.13814 324.666 0 311 0C297.21 0 285.594 9.30398 282.085 21.977Z" fill="white"/>
</svg>
