<svg width="541" height="196" viewBox="0 0 541 196" fill="none" xmlns="http://www.w3.org/2000/svg">
<path d="M282.085 21.977C279.833 21.3405 277.456 21 275 21C269.576 21 264.539 22.6612 260.372 25.5025C254.926 17.9308 246.039 13 236 13C222.554 13 211.174 21.8456 207.362 34.0351C206.911 34.0118 206.457 34 206 34C192.303 34 181.079 44.5919 180.073 58.032C179.552 58.0107 179.027 58 178.5 58C172.368 58 166.575 59.4524 161.447 62.032C156.042 52.4613 145.775 46 134 46C117.471 46 103.915 58.7314 102.604 74.9231C100.168 73.6929 97.4151 73 94.5 73C89.1761 73 84.3921 75.3113 81.0966 78.9853C76.5938 75.2474 70.8094 73 64.5 73C50.7326 73 39.4644 83.7006 38.5587 97.2386C35.8466 96.4327 32.9738 96 30 96C13.4315 96 0 109.431 0 126C0 142.569 13.4315 156 30 156C31.7824 156 33.5286 155.845 35.2256 155.546C39.0126 176.282 57.1707 192 79 192C93.9365 192 107.154 184.641 115.225 173.351C122.861 186.872 137.365 196 154 196C173.293 196 189.718 183.723 195.889 166.555C201.614 170.011 208.325 172 215.5 172C232.215 172 246.41 161.208 251.496 146.211C256.09 144.667 260.253 142.182 263.754 138.986C267.548 144.434 273.857 148 281 148C286.451 148 291.417 145.923 295.15 142.518C302.108 151.338 312.893 157 325 157C332.175 157 338.886 155.011 344.611 151.555C350.782 168.723 367.207 181 386.5 181C403.135 181 417.639 171.872 425.275 158.351C433.346 169.641 446.564 177 461.5 177C483.329 177 501.487 161.282 505.274 140.546C506.971 140.845 508.718 141 510.5 141C527.069 141 540.5 127.569 540.5 111C540.5 94.4315 527.069 81 510.5 81C507.526 81 504.653 81.4327 501.941 82.2386C501.036 68.7006 489.767 58 476 58C469.691 58 463.906 60.2474 459.403 63.9853C456.108 60.3113 451.324 58 446 58C443.085 58 440.332 58.6929 437.896 59.9231C436.585 43.7314 423.029 31 406.5 31C394.725 31 384.458 37.4613 379.053 47.032C377.898 46.451 376.709 45.9271 375.49 45.4642C372.893 31.5402 360.677 21 346 21C343.881 21 341.814 21.2197 339.819 21.6374C336.198 9.13814 324.666 0 311 0C297.21 0 285.594 9.30398 282.085 21.977Z" fill="white"/>
</svg>
