<svg width="801" height="335" viewBox="0 0 801 335" fill="none" xmlns="http://www.w3.org/2000/svg">
<path d="M407 99C407 113.359 395.359 125 381 125C366.641 125 355 113.359 355 99C355 84.6406 366.641 73 381 73C395.359 73 407 84.6406 407 99Z" fill="white"/>
<path d="M338 86C338 100.359 326.359 112 312 112C297.641 112 286 100.359 286 86C286 71.6406 297.641 60 312 60C326.359 60 338 71.6406 338 86Z" fill="white"/>
<path d="M381 82C381 98.5685 367.569 112 351 112C334.431 112 321 98.5685 321 82C321 65.4315 334.431 52 351 52C367.569 52 381 65.4315 381 82Z" fill="white"/>
<path d="M306 69C306 85.5685 292.569 99 276 99C259.431 99 246 85.5685 246 69C246 52.4315 259.431 39 276 39C292.569 39 306 52.4315 306 69Z" fill="white"/>
<path d="M271 90C271 106.569 257.569 120 241 120C224.431 120 211 106.569 211 90C211 73.4315 224.431 60 241 60C257.569 60 271 73.4315 271 90Z" fill="white"/>
<path d="M301 149C301 167.778 285.778 183 267 183C248.222 183 233 167.778 233 149C233 130.222 248.222 115 267 115C285.778 115 301 130.222 301 149Z" fill="white"/>
<path d="M327 166C327 177.598 317.598 187 306 187C294.402 187 285 177.598 285 166C285 154.402 294.402 145 306 145C317.598 145 327 154.402 327 166Z" fill="white"/>
<path d="M407 133C407 144.598 397.598 154 386 154C374.402 154 365 144.598 365 133C365 121.402 374.402 112 386 112C397.598 112 407 121.402 407 133Z" fill="white"/>
<path d="M248 116.5C248 128.926 237.926 139 225.5 139C213.074 139 203 128.926 203 116.5C203 104.074 213.074 94 225.5 94C237.926 94 248 104.074 248 116.5Z" fill="white"/>
<path d="M255 143.5C255 155.926 244.926 166 232.5 166C220.074 166 210 155.926 210 143.5C210 131.074 220.074 121 232.5 121C244.926 121 255 131.074 255 143.5Z" fill="white"/>
<path d="M381 152.5C381 171.554 365.554 187 346.5 187C327.446 187 312 171.554 312 152.5C312 133.446 327.446 118 346.5 118C365.554 118 381 133.446 381 152.5Z" fill="white"/>
<path d="M233 86H378V149H233V86Z" fill="white"/>
<path d="M340 191C340 207.569 326.569 221 310 221C293.431 221 280 207.569 280 191C280 174.431 293.431 161 310 161C326.569 161 340 174.431 340 191Z" fill="white"/>
<path d="M433.5 187C433.5 203.569 420.069 217 403.5 217C386.931 217 373.5 203.569 373.5 187C373.5 170.431 386.931 157 403.5 157C420.069 157 433.5 170.431 433.5 187Z" fill="white"/>
<path d="M370.5 164C370.5 178.359 358.859 190 344.5 190C330.141 190 318.5 178.359 318.5 164C318.5 149.641 330.141 138 344.5 138C358.859 138 370.5 149.641 370.5 164Z" fill="white"/>
<path d="M392.5 156C392.5 165.941 384.441 174 374.5 174C364.559 174 356.5 165.941 356.5 156C356.5 146.059 364.559 138 374.5 138C384.441 138 392.5 146.059 392.5 156Z" fill="white"/>
<path d="M445.5 142.5C445.5 159.897 431.397 174 414 174C396.603 174 382.5 159.897 382.5 142.5C382.5 125.103 396.603 111 414 111C431.397 111 445.5 125.103 445.5 142.5Z" fill="white"/>
<path d="M496.5 161C496.5 181.987 479.487 199 458.5 199C437.513 199 420.5 181.987 420.5 161C420.5 140.013 437.513 123 458.5 123C479.487 123 496.5 140.013 496.5 161Z" fill="white"/>
<path d="M533.5 199C533.5 219.987 516.487 237 495.5 237C474.513 237 457.5 219.987 457.5 199C457.5 178.013 474.513 161 495.5 161C516.487 161 533.5 178.013 533.5 199Z" fill="white"/>
<path d="M478.5 216.5C478.5 241.077 458.577 261 434 261C409.423 261 389.5 241.077 389.5 216.5C389.5 191.923 409.423 172 434 172C458.577 172 478.5 191.923 478.5 216.5Z" fill="white"/>
<path d="M403.5 212.5C403.5 237.077 383.577 257 359 257C334.423 257 314.5 237.077 314.5 212.5C314.5 187.923 334.423 168 359 168C383.577 168 403.5 187.923 403.5 212.5Z" fill="white"/>
<path d="M456 116C456 132.569 442.569 146 426 146C409.431 146 396 132.569 396 116C396 99.4315 409.431 86 426 86C442.569 86 456 99.4315 456 116Z" fill="white"/>
<path d="M549.5 112C549.5 128.569 536.069 142 519.5 142C502.931 142 489.5 128.569 489.5 112C489.5 95.4315 502.931 82 519.5 82C536.069 82 549.5 95.4315 549.5 112Z" fill="white"/>
<path d="M486.5 89C486.5 103.359 474.859 115 460.5 115C446.141 115 434.5 103.359 434.5 89C434.5 74.6406 446.141 63 460.5 63C474.859 63 486.5 74.6406 486.5 89Z" fill="white"/>
<path d="M508.5 81C508.5 90.9411 500.441 99 490.5 99C480.559 99 472.5 90.9411 472.5 81C472.5 71.0589 480.559 63 490.5 63C500.441 63 508.5 71.0589 508.5 81Z" fill="white"/>
<path d="M561.5 67.5C561.5 84.897 547.397 99 530 99C512.603 99 498.5 84.897 498.5 67.5C498.5 50.103 512.603 36 530 36C547.397 36 561.5 50.103 561.5 67.5Z" fill="white"/>
<path d="M612.5 86C612.5 106.987 595.487 124 574.5 124C553.513 124 536.5 106.987 536.5 86C536.5 65.0132 553.513 48 574.5 48C595.487 48 612.5 65.0132 612.5 86Z" fill="white"/>
<path d="M649.5 124C649.5 144.987 632.487 162 611.5 162C590.513 162 573.5 144.987 573.5 124C573.5 103.013 590.513 86 611.5 86C632.487 86 649.5 103.013 649.5 124Z" fill="white"/>
<path d="M594.5 141.5C594.5 166.077 574.577 186 550 186C525.423 186 505.5 166.077 505.5 141.5C505.5 116.923 525.423 97 550 97C574.577 97 594.5 116.923 594.5 141.5Z" fill="white"/>
<path d="M519.5 137.5C519.5 162.077 499.577 182 475 182C450.423 182 430.5 162.077 430.5 137.5C430.5 112.923 450.423 93 475 93C499.577 93 519.5 112.923 519.5 137.5Z" fill="white"/>
<path d="M596.5 63C596.5 77.3594 608.141 89 622.5 89C636.859 89 648.5 77.3594 648.5 63C648.5 48.6406 636.859 37 622.5 37C608.141 37 596.5 48.6406 596.5 63Z" fill="white"/>
<path d="M665.5 50C665.5 64.3594 677.141 76 691.5 76C705.859 76 717.5 64.3594 717.5 50C717.5 35.6406 705.859 24 691.5 24C677.141 24 665.5 35.6406 665.5 50Z" fill="white"/>
<path d="M622.5 46C622.5 62.5685 635.931 76 652.5 76C669.069 76 682.5 62.5685 682.5 46C682.5 29.4315 669.069 16 652.5 16C635.931 16 622.5 29.4315 622.5 46Z" fill="white"/>
<path d="M697.5 33C697.5 49.5685 710.931 63 727.5 63C744.069 63 757.5 49.5685 757.5 33C757.5 16.4315 744.069 3 727.5 3C710.931 3 697.5 16.4315 697.5 33Z" fill="white"/>
<path d="M732.5 54C732.5 70.5685 745.931 84 762.5 84C779.069 84 792.5 70.5685 792.5 54C792.5 37.4315 779.069 24 762.5 24C745.931 24 732.5 37.4315 732.5 54Z" fill="white"/>
<path d="M702.5 113C702.5 131.778 717.722 147 736.5 147C755.278 147 770.5 131.778 770.5 113C770.5 94.2223 755.278 79 736.5 79C717.722 79 702.5 94.2223 702.5 113Z" fill="white"/>
<path d="M676.5 130C676.5 141.598 685.902 151 697.5 151C709.098 151 718.5 141.598 718.5 130C718.5 118.402 709.098 109 697.5 109C685.902 109 676.5 118.402 676.5 130Z" fill="white"/>
<path d="M596.5 97C596.5 108.598 605.902 118 617.5 118C629.098 118 638.5 108.598 638.5 97C638.5 85.402 629.098 76 617.5 76C605.902 76 596.5 85.402 596.5 97Z" fill="white"/>
<path d="M755.5 80.5C755.5 92.9264 765.574 103 778 103C790.426 103 800.5 92.9264 800.5 80.5C800.5 68.0736 790.426 58 778 58C765.574 58 755.5 68.0736 755.5 80.5Z" fill="white"/>
<path d="M748.5 107.5C748.5 119.926 758.574 130 771 130C783.426 130 793.5 119.926 793.5 107.5C793.5 95.0736 783.426 85 771 85C758.574 85 748.5 95.0736 748.5 107.5Z" fill="white"/>
<path d="M622.5 116.5C622.5 135.554 637.946 151 657 151C676.054 151 691.5 135.554 691.5 116.5C691.5 97.4462 676.054 82 657 82C637.946 82 622.5 97.4462 622.5 116.5Z" fill="white"/>
<path d="M770.5 50H625.5V113H770.5V50Z" fill="white"/>
<path d="M654.5 157C654.5 173.569 667.931 187 684.5 187C701.069 187 714.5 173.569 714.5 157C714.5 140.431 701.069 127 684.5 127C667.931 127 654.5 140.431 654.5 157Z" fill="white"/>
<path d="M561 153C561 169.569 574.431 183 591 183C607.569 183 621 169.569 621 153C621 136.431 607.569 123 591 123C574.431 123 561 136.431 561 153Z" fill="white"/>
<path d="M624 130C624 144.359 635.641 156 650 156C664.359 156 676 144.359 676 130C676 115.641 664.359 104 650 104C635.641 104 624 115.641 624 130Z" fill="white"/>
<path d="M602 122C602 131.941 610.059 140 620 140C629.941 140 638 131.941 638 122C638 112.059 629.941 104 620 104C610.059 104 602 112.059 602 122Z" fill="white"/>
<path d="M549 108.5C549 125.897 563.103 140 580.5 140C597.897 140 612 125.897 612 108.5C612 91.103 597.897 77 580.5 77C563.103 77 549 91.103 549 108.5Z" fill="white"/>
<path d="M498 127C498 147.987 515.013 165 536 165C556.987 165 574 147.987 574 127C574 106.013 556.987 89 536 89C515.013 89 498 106.013 498 127Z" fill="white"/>
<path d="M461 165C461 185.987 478.013 203 499 203C519.987 203 537 185.987 537 165C537 144.013 519.987 127 499 127C478.013 127 461 144.013 461 165Z" fill="white"/>
<path d="M516 182.5C516 207.077 535.923 227 560.5 227C585.077 227 605 207.077 605 182.5C605 157.923 585.077 138 560.5 138C535.923 138 516 157.923 516 182.5Z" fill="white"/>
<path d="M591 178.5C591 203.077 610.923 223 635.5 223C660.077 223 680 203.077 680 178.5C680 153.923 660.077 134 635.5 134C610.923 134 591 153.923 591 178.5Z" fill="white"/>
<path d="M547.5 80C547.5 96.5685 560.931 110 577.5 110C594.069 110 607.5 96.5685 607.5 80C607.5 63.4315 594.069 50 577.5 50C560.931 50 547.5 63.4315 547.5 80Z" fill="white"/>
<path d="M454 76C454 92.5685 467.431 106 484 106C500.569 106 514 92.5685 514 76C514 59.4315 500.569 46 484 46C467.431 46 454 59.4315 454 76Z" fill="white"/>
<path d="M517 53C517 67.3594 528.641 79 543 79C557.359 79 569 67.3594 569 53C569 38.6406 557.359 27 543 27C528.641 27 517 38.6406 517 53Z" fill="white"/>
<path d="M495 45C495 54.9411 503.059 63 513 63C522.941 63 531 54.9411 531 45C531 35.0589 522.941 27 513 27C503.059 27 495 35.0589 495 45Z" fill="white"/>
<path d="M442 31.5C442 48.897 456.103 63 473.5 63C490.897 63 505 48.897 505 31.5C505 14.103 490.897 0 473.5 0C456.103 0 442 14.103 442 31.5Z" fill="white"/>
<path d="M391 50C391 70.9868 408.013 88 429 88C449.987 88 467 70.9868 467 50C467 29.0132 449.987 12 429 12C408.013 12 391 29.0132 391 50Z" fill="white"/>
<path d="M354 88C354 108.987 371.013 126 392 126C412.987 126 430 108.987 430 88C430 67.0132 412.987 50 392 50C371.013 50 354 67.0132 354 88Z" fill="white"/>
<path d="M409 105.5C409 130.077 428.923 150 453.5 150C478.077 150 498 130.077 498 105.5C498 80.9233 478.077 61 453.5 61C428.923 61 409 80.9233 409 105.5Z" fill="white"/>
<path d="M484 101.5C484 126.077 503.923 146 528.5 146C553.077 146 573 126.077 573 101.5C573 76.9233 553.077 57 528.5 57C503.923 57 484 76.9233 484 101.5Z" fill="white"/>
<path d="M242.5 173C242.5 187.359 254.141 199 268.5 199C282.859 199 294.5 187.359 294.5 173C294.5 158.641 282.859 147 268.5 147C254.141 147 242.5 158.641 242.5 173Z" fill="white"/>
<path d="M311.5 160C311.5 174.359 323.141 186 337.5 186C351.859 186 363.5 174.359 363.5 160C363.5 145.641 351.859 134 337.5 134C323.141 134 311.5 145.641 311.5 160Z" fill="white"/>
<path d="M268.5 156C268.5 172.569 281.931 186 298.5 186C315.069 186 328.5 172.569 328.5 156C328.5 139.431 315.069 126 298.5 126C281.931 126 268.5 139.431 268.5 156Z" fill="white"/>
<path d="M343.5 143C343.5 159.569 356.931 173 373.5 173C390.069 173 403.5 159.569 403.5 143C403.5 126.431 390.069 113 373.5 113C356.931 113 343.5 126.431 343.5 143Z" fill="white"/>
<path d="M378.5 164C378.5 180.569 391.931 194 408.5 194C425.069 194 438.5 180.569 438.5 164C438.5 147.431 425.069 134 408.5 134C391.931 134 378.5 147.431 378.5 164Z" fill="white"/>
<path d="M348.5 223C348.5 241.778 363.722 257 382.5 257C401.278 257 416.5 241.778 416.5 223C416.5 204.222 401.278 189 382.5 189C363.722 189 348.5 204.222 348.5 223Z" fill="white"/>
<path d="M322.5 240C322.5 251.598 331.902 261 343.5 261C355.098 261 364.5 251.598 364.5 240C364.5 228.402 355.098 219 343.5 219C331.902 219 322.5 228.402 322.5 240Z" fill="white"/>
<path d="M242.5 207C242.5 218.598 251.902 228 263.5 228C275.098 228 284.5 218.598 284.5 207C284.5 195.402 275.098 186 263.5 186C251.902 186 242.5 195.402 242.5 207Z" fill="white"/>
<path d="M401.5 190.5C401.5 202.926 411.574 213 424 213C436.426 213 446.5 202.926 446.5 190.5C446.5 178.074 436.426 168 424 168C411.574 168 401.5 178.074 401.5 190.5Z" fill="white"/>
<path d="M394.5 217.5C394.5 229.926 404.574 240 417 240C429.426 240 439.5 229.926 439.5 217.5C439.5 205.074 429.426 195 417 195C404.574 195 394.5 205.074 394.5 217.5Z" fill="white"/>
<path d="M268.5 226.5C268.5 245.554 283.946 261 303 261C322.054 261 337.5 245.554 337.5 226.5C337.5 207.446 322.054 192 303 192C283.946 192 268.5 207.446 268.5 226.5Z" fill="white"/>
<path d="M416.5 160H271.5V223H416.5V160Z" fill="white"/>
<path d="M309.5 265C309.5 281.569 322.931 295 339.5 295C356.069 295 369.5 281.569 369.5 265C369.5 248.431 356.069 235 339.5 235C322.931 235 309.5 248.431 309.5 265Z" fill="white"/>
<path d="M216 261C216 277.569 229.431 291 246 291C262.569 291 276 277.569 276 261C276 244.431 262.569 231 246 231C229.431 231 216 244.431 216 261Z" fill="white"/>
<path d="M279 238C279 252.359 290.641 264 305 264C319.359 264 331 252.359 331 238C331 223.641 319.359 212 305 212C290.641 212 279 223.641 279 238Z" fill="white"/>
<path d="M257 230C257 239.941 265.059 248 275 248C284.941 248 293 239.941 293 230C293 220.059 284.941 212 275 212C265.059 212 257 220.059 257 230Z" fill="white"/>
<path d="M204 216.5C204 233.897 218.103 248 235.5 248C252.897 248 267 233.897 267 216.5C267 199.103 252.897 185 235.5 185C218.103 185 204 199.103 204 216.5Z" fill="white"/>
<path d="M153 235C153 255.987 170.013 273 191 273C211.987 273 229 255.987 229 235C229 214.013 211.987 197 191 197C170.013 197 153 214.013 153 235Z" fill="white"/>
<path d="M116 273C116 293.987 133.013 311 154 311C174.987 311 192 293.987 192 273C192 252.013 174.987 235 154 235C133.013 235 116 252.013 116 273Z" fill="white"/>
<path d="M171 290.5C171 315.077 190.923 335 215.5 335C240.077 335 260 315.077 260 290.5C260 265.923 240.077 246 215.5 246C190.923 246 171 265.923 171 290.5Z" fill="white"/>
<path d="M246 286.5C246 311.077 265.923 331 290.5 331C315.077 331 335 311.077 335 286.5C335 261.923 315.077 242 290.5 242C265.923 242 246 261.923 246 286.5Z" fill="white"/>
<path d="M193.5 190C193.5 206.569 206.931 220 223.5 220C240.069 220 253.5 206.569 253.5 190C253.5 173.431 240.069 160 223.5 160C206.931 160 193.5 173.431 193.5 190Z" fill="white"/>
<path d="M100 186C100 202.569 113.431 216 130 216C146.569 216 160 202.569 160 186C160 169.431 146.569 156 130 156C113.431 156 100 169.431 100 186Z" fill="white"/>
<path d="M163 163C163 177.359 174.641 189 189 189C203.359 189 215 177.359 215 163C215 148.641 203.359 137 189 137C174.641 137 163 148.641 163 163Z" fill="white"/>
<path d="M141 155C141 164.941 149.059 173 159 173C168.941 173 177 164.941 177 155C177 145.059 168.941 137 159 137C149.059 137 141 145.059 141 155Z" fill="white"/>
<path d="M88 141.5C88 158.897 102.103 173 119.5 173C136.897 173 151 158.897 151 141.5C151 124.103 136.897 110 119.5 110C102.103 110 88 124.103 88 141.5Z" fill="white"/>
<path d="M37 160C37 180.987 54.0132 198 75 198C95.9868 198 113 180.987 113 160C113 139.013 95.9868 122 75 122C54.0132 122 37 139.013 37 160Z" fill="white"/>
<path d="M0 198C0 218.987 17.0132 236 38 236C58.9868 236 76 218.987 76 198C76 177.013 58.9868 160 38 160C17.0132 160 0 177.013 0 198Z" fill="white"/>
<path d="M55 215.5C55 240.077 74.9233 260 99.5 260C124.077 260 144 240.077 144 215.5C144 190.923 124.077 171 99.5 171C74.9233 171 55 190.923 55 215.5Z" fill="white"/>
<path d="M130 211.5C130 236.077 149.923 256 174.5 256C199.077 256 219 236.077 219 211.5C219 186.923 199.077 167 174.5 167C149.923 167 130 186.923 130 211.5Z" fill="white"/>
</svg>
