<svg width="598" height="261" viewBox="0 0 598 261" fill="none" xmlns="http://www.w3.org/2000/svg">
<path d="M393.5 99C393.5 113.359 405.141 125 419.5 125C433.859 125 445.5 113.359 445.5 99C445.5 84.6406 433.859 73 419.5 73C405.141 73 393.5 84.6406 393.5 99Z" fill="white"/>
<path d="M462.5 86C462.5 100.359 474.141 112 488.5 112C502.859 112 514.5 100.359 514.5 86C514.5 71.6406 502.859 60 488.5 60C474.141 60 462.5 71.6406 462.5 86Z" fill="white"/>
<path d="M419.5 82C419.5 98.5685 432.931 112 449.5 112C466.069 112 479.5 98.5685 479.5 82C479.5 65.4315 466.069 52 449.5 52C432.931 52 419.5 65.4315 419.5 82Z" fill="white"/>
<path d="M494.5 69C494.5 85.5685 507.931 99 524.5 99C541.069 99 554.5 85.5685 554.5 69C554.5 52.4315 541.069 39 524.5 39C507.931 39 494.5 52.4315 494.5 69Z" fill="white"/>
<path d="M529.5 90C529.5 106.569 542.931 120 559.5 120C576.069 120 589.5 106.569 589.5 90C589.5 73.4315 576.069 60 559.5 60C542.931 60 529.5 73.4315 529.5 90Z" fill="white"/>
<path d="M499.5 149C499.5 167.778 514.722 183 533.5 183C552.278 183 567.5 167.778 567.5 149C567.5 130.222 552.278 115 533.5 115C514.722 115 499.5 130.222 499.5 149Z" fill="white"/>
<path d="M473.5 166C473.5 177.598 482.902 187 494.5 187C506.098 187 515.5 177.598 515.5 166C515.5 154.402 506.098 145 494.5 145C482.902 145 473.5 154.402 473.5 166Z" fill="white"/>
<path d="M393.5 133C393.5 144.598 402.902 154 414.5 154C426.098 154 435.5 144.598 435.5 133C435.5 121.402 426.098 112 414.5 112C402.902 112 393.5 121.402 393.5 133Z" fill="white"/>
<path d="M552.5 116.5C552.5 128.926 562.574 139 575 139C587.426 139 597.5 128.926 597.5 116.5C597.5 104.074 587.426 94 575 94C562.574 94 552.5 104.074 552.5 116.5Z" fill="white"/>
<path d="M545.5 143.5C545.5 155.926 555.574 166 568 166C580.426 166 590.5 155.926 590.5 143.5C590.5 131.074 580.426 121 568 121C555.574 121 545.5 131.074 545.5 143.5Z" fill="white"/>
<path d="M419.5 152.5C419.5 171.554 434.946 187 454 187C473.054 187 488.5 171.554 488.5 152.5C488.5 133.446 473.054 118 454 118C434.946 118 419.5 133.446 419.5 152.5Z" fill="white"/>
<path d="M567.5 86H422.5V149H567.5V86Z" fill="white"/>
<path d="M460.5 191C460.5 207.569 473.931 221 490.5 221C507.069 221 520.5 207.569 520.5 191C520.5 174.431 507.069 161 490.5 161C473.931 161 460.5 174.431 460.5 191Z" fill="white"/>
<path d="M367 187C367 203.569 380.431 217 397 217C413.569 217 427 203.569 427 187C427 170.431 413.569 157 397 157C380.431 157 367 170.431 367 187Z" fill="white"/>
<path d="M430 164C430 178.359 441.641 190 456 190C470.359 190 482 178.359 482 164C482 149.641 470.359 138 456 138C441.641 138 430 149.641 430 164Z" fill="white"/>
<path d="M408 156C408 165.941 416.059 174 426 174C435.941 174 444 165.941 444 156C444 146.059 435.941 138 426 138C416.059 138 408 146.059 408 156Z" fill="white"/>
<path d="M355 142.5C355 159.897 369.103 174 386.5 174C403.897 174 418 159.897 418 142.5C418 125.103 403.897 111 386.5 111C369.103 111 355 125.103 355 142.5Z" fill="white"/>
<path d="M304 161C304 181.987 321.013 199 342 199C362.987 199 380 181.987 380 161C380 140.013 362.987 123 342 123C321.013 123 304 140.013 304 161Z" fill="white"/>
<path d="M267 199C267 219.987 284.013 237 305 237C325.987 237 343 219.987 343 199C343 178.013 325.987 161 305 161C284.013 161 267 178.013 267 199Z" fill="white"/>
<path d="M322 216.5C322 241.077 341.923 261 366.5 261C391.077 261 411 241.077 411 216.5C411 191.923 391.077 172 366.5 172C341.923 172 322 191.923 322 216.5Z" fill="white"/>
<path d="M397 212.5C397 237.077 416.923 257 441.5 257C466.077 257 486 237.077 486 212.5C486 187.923 466.077 168 441.5 168C416.923 168 397 187.923 397 212.5Z" fill="white"/>
<path d="M344.5 116C344.5 132.569 357.931 146 374.5 146C391.069 146 404.5 132.569 404.5 116C404.5 99.4315 391.069 86 374.5 86C357.931 86 344.5 99.4315 344.5 116Z" fill="white"/>
<path d="M251 112C251 128.569 264.431 142 281 142C297.569 142 311 128.569 311 112C311 95.4315 297.569 82 281 82C264.431 82 251 95.4315 251 112Z" fill="white"/>
<path d="M314 89C314 103.359 325.641 115 340 115C354.359 115 366 103.359 366 89C366 74.6406 354.359 63 340 63C325.641 63 314 74.6406 314 89Z" fill="white"/>
<path d="M292 81C292 90.9411 300.059 99 310 99C319.941 99 328 90.9411 328 81C328 71.0589 319.941 63 310 63C300.059 63 292 71.0589 292 81Z" fill="white"/>
<path d="M239 67.5C239 84.897 253.103 99 270.5 99C287.897 99 302 84.897 302 67.5C302 50.103 287.897 36 270.5 36C253.103 36 239 50.103 239 67.5Z" fill="white"/>
<path d="M188 86C188 106.987 205.013 124 226 124C246.987 124 264 106.987 264 86C264 65.0132 246.987 48 226 48C205.013 48 188 65.0132 188 86Z" fill="white"/>
<path d="M151 124C151 144.987 168.013 162 189 162C209.987 162 227 144.987 227 124C227 103.013 209.987 86 189 86C168.013 86 151 103.013 151 124Z" fill="white"/>
<path d="M206 141.5C206 166.077 225.923 186 250.5 186C275.077 186 295 166.077 295 141.5C295 116.923 275.077 97 250.5 97C225.923 97 206 116.923 206 141.5Z" fill="white"/>
<path d="M281 137.5C281 162.077 300.923 182 325.5 182C350.077 182 370 162.077 370 137.5C370 112.923 350.077 93 325.5 93C300.923 93 281 112.923 281 137.5Z" fill="white"/>
<path d="M204 63C204 77.3594 192.359 89 178 89C163.641 89 152 77.3594 152 63C152 48.6406 163.641 37 178 37C192.359 37 204 48.6406 204 63Z" fill="white"/>
<path d="M135 50C135 64.3594 123.359 76 109 76C94.6406 76 83 64.3594 83 50C83 35.6406 94.6406 24 109 24C123.359 24 135 35.6406 135 50Z" fill="white"/>
<path d="M178 46C178 62.5685 164.569 76 148 76C131.431 76 118 62.5685 118 46C118 29.4315 131.431 16 148 16C164.569 16 178 29.4315 178 46Z" fill="white"/>
<path d="M103 33C103 49.5685 89.5685 63 73 63C56.4315 63 43 49.5685 43 33C43 16.4315 56.4315 3 73 3C89.5685 3 103 16.4315 103 33Z" fill="white"/>
<path d="M68 54C68 70.5685 54.5685 84 38 84C21.4315 84 8 70.5685 8 54C8 37.4315 21.4315 24 38 24C54.5685 24 68 37.4315 68 54Z" fill="white"/>
<path d="M98 113C98 131.778 82.7777 147 64 147C45.2223 147 30 131.778 30 113C30 94.2223 45.2223 79 64 79C82.7777 79 98 94.2223 98 113Z" fill="white"/>
<path d="M124 130C124 141.598 114.598 151 103 151C91.402 151 82 141.598 82 130C82 118.402 91.402 109 103 109C114.598 109 124 118.402 124 130Z" fill="white"/>
<path d="M204 97C204 108.598 194.598 118 183 118C171.402 118 162 108.598 162 97C162 85.402 171.402 76 183 76C194.598 76 204 85.402 204 97Z" fill="white"/>
<path d="M45 80.5C45 92.9264 34.9264 103 22.5 103C10.0736 103 0 92.9264 0 80.5C0 68.0736 10.0736 58 22.5 58C34.9264 58 45 68.0736 45 80.5Z" fill="white"/>
<path d="M52 107.5C52 119.926 41.9264 130 29.5 130C17.0736 130 7 119.926 7 107.5C7 95.0736 17.0736 85 29.5 85C41.9264 85 52 95.0736 52 107.5Z" fill="white"/>
<path d="M178 116.5C178 135.554 162.554 151 143.5 151C124.446 151 109 135.554 109 116.5C109 97.4462 124.446 82 143.5 82C162.554 82 178 97.4462 178 116.5Z" fill="white"/>
<path d="M30 50H175V113H30V50Z" fill="white"/>
<path d="M137 155C137 171.569 123.569 185 107 185C90.4315 185 77 171.569 77 155C77 138.431 90.4315 125 107 125C123.569 125 137 138.431 137 155Z" fill="white"/>
<path d="M230.5 151C230.5 167.569 217.069 181 200.5 181C183.931 181 170.5 167.569 170.5 151C170.5 134.431 183.931 121 200.5 121C217.069 121 230.5 134.431 230.5 151Z" fill="white"/>
<path d="M167.5 128C167.5 142.359 155.859 154 141.5 154C127.141 154 115.5 142.359 115.5 128C115.5 113.641 127.141 102 141.5 102C155.859 102 167.5 113.641 167.5 128Z" fill="white"/>
<path d="M189.5 120C189.5 129.941 181.441 138 171.5 138C161.559 138 153.5 129.941 153.5 120C153.5 110.059 161.559 102 171.5 102C181.441 102 189.5 110.059 189.5 120Z" fill="white"/>
<path d="M242.5 106.5C242.5 123.897 228.397 138 211 138C193.603 138 179.5 123.897 179.5 106.5C179.5 89.103 193.603 75 211 75C228.397 75 242.5 89.103 242.5 106.5Z" fill="white"/>
<path d="M293.5 125C293.5 145.987 276.487 163 255.5 163C234.513 163 217.5 145.987 217.5 125C217.5 104.013 234.513 87 255.5 87C276.487 87 293.5 104.013 293.5 125Z" fill="white"/>
<path d="M330.5 163C330.5 183.987 313.487 201 292.5 201C271.513 201 254.5 183.987 254.5 163C254.5 142.013 271.513 125 292.5 125C313.487 125 330.5 142.013 330.5 163Z" fill="white"/>
<path d="M275.5 180.5C275.5 205.077 255.577 225 231 225C206.423 225 186.5 205.077 186.5 180.5C186.5 155.923 206.423 136 231 136C255.577 136 275.5 155.923 275.5 180.5Z" fill="white"/>
<path d="M200.5 176.5C200.5 201.077 180.577 221 156 221C131.423 221 111.5 201.077 111.5 176.5C111.5 151.923 131.423 132 156 132C180.577 132 200.5 151.923 200.5 176.5Z" fill="white"/>
<path d="M253 80C253 96.5685 239.569 110 223 110C206.431 110 193 96.5685 193 80C193 63.4315 206.431 50 223 50C239.569 50 253 63.4315 253 80Z" fill="white"/>
<path d="M346.5 76C346.5 92.5685 333.069 106 316.5 106C299.931 106 286.5 92.5685 286.5 76C286.5 59.4315 299.931 46 316.5 46C333.069 46 346.5 59.4315 346.5 76Z" fill="white"/>
<path d="M283.5 53C283.5 67.3594 271.859 79 257.5 79C243.141 79 231.5 67.3594 231.5 53C231.5 38.6406 243.141 27 257.5 27C271.859 27 283.5 38.6406 283.5 53Z" fill="white"/>
<path d="M305.5 45C305.5 54.9411 297.441 63 287.5 63C277.559 63 269.5 54.9411 269.5 45C269.5 35.0589 277.559 27 287.5 27C297.441 27 305.5 35.0589 305.5 45Z" fill="white"/>
<path d="M358.5 31.5C358.5 48.897 344.397 63 327 63C309.603 63 295.5 48.897 295.5 31.5C295.5 14.103 309.603 0 327 0C344.397 0 358.5 14.103 358.5 31.5Z" fill="white"/>
<path d="M409.5 50C409.5 70.9868 392.487 88 371.5 88C350.513 88 333.5 70.9868 333.5 50C333.5 29.0132 350.513 12 371.5 12C392.487 12 409.5 29.0132 409.5 50Z" fill="white"/>
<path d="M446.5 88C446.5 108.987 429.487 126 408.5 126C387.513 126 370.5 108.987 370.5 88C370.5 67.0132 387.513 50 408.5 50C429.487 50 446.5 67.0132 446.5 88Z" fill="white"/>
<path d="M391.5 105.5C391.5 130.077 371.577 150 347 150C322.423 150 302.5 130.077 302.5 105.5C302.5 80.9233 322.423 61 347 61C371.577 61 391.5 80.9233 391.5 105.5Z" fill="white"/>
<path d="M316.5 101.5C316.5 126.077 296.577 146 272 146C247.423 146 227.5 126.077 227.5 101.5C227.5 76.9233 247.423 57 272 57C296.577 57 316.5 76.9233 316.5 101.5Z" fill="white"/>
</svg>
