<svg width="1090" height="589" viewBox="0 0 1090 589" fill="none" xmlns="http://www.w3.org/2000/svg">
<path d="M722.365 78.3498C775.682 150.194 914.639 316.857 920.973 322.74L1089.5 464.085L95.5 588.585L0 491.085L70.5 358.585L148.5 251.085L286.865 128.262L321.865 104.466L379.365 73.7068L431.365 104.466L453.365 67.9032L492.365 45.2688L548.865 0L561.365 27.2773L622.365 113.752H669.365L706.365 88.7964L722.365 78.3498Z" fill="#190A37"/>
<path d="M823.973 160.516C877.29 232.36 959.773 316.857 966.108 322.74L1089.5 464.085L879.5 572.585H338.5L93 586.085L160 309.585L181 257.585L317.865 128.842L359.865 106.788L379.865 74.2872L452.865 99.8542L472.865 78.3498L525.865 56.2958L548.865 0L605.865 69.0639L655.865 103.886L709.865 114.333L722.618 78.3498L753.104 99.8542L823.973 160.516Z" fill="url(#paint0_linear_27_47)"/>
<defs>
<linearGradient id="paint0_linear_27_47" x1="585.432" y1="0" x2="585.432" y2="358.585" gradientUnits="userSpaceOnUse">
<stop stop-color="#7A41C1"/>
<stop offset="1" stop-color="#350233"/>
</linearGradient>
</defs>
</svg>
