<svg width="1310" height="729" viewBox="0 0 1310 729" fill="none" xmlns="http://www.w3.org/2000/svg">
<path d="M388 156C320.667 234.167 184 392.1 176 398.5L134 437.5L1184.5 710L1201.5 686.5L1298.5 665L1309.5 657L1279.5 574.5L1179.5 437.5L968.5 255.5L877 182L838 114L783 214L687.5 136.5L601 0L560 136.5L483.5 240L422 214L388 156Z" fill="#270C37"/>
<path d="M291.5 219C224.167 297.167 147 346.6 139 353L40.5 437.5L0 576L26 605.5L1094 621L1072.5 437.5L974.5 331.5L881 272L816.5 204L838 114L776.5 172.5L726 214L711 216L580.5 136.5L601 0L548.5 76.5L465.5 173L426.5 236L404 204.5L388 156L291.5 219Z" fill="#4A2C7B"/>
<path d="M293 243.5C225.667 321.667 164.5 359.6 156.5 366L77 437.5L26 605.5L388 728.5L1184.5 710L1298.5 665L1239.5 564.5L1122.5 437.5L1024.5 331.5L931 272L866.5 204L838 114L797 171.5L726 214L630.5 136.5L601 0L565.5 75L510.5 144L426 231.5L405 204L388 156L293 243.5Z" fill="url(#paint0_linear_28_105)"/>
<defs>
<linearGradient id="paint0_linear_28_105" x1="599.75" y1="0" x2="599.75" y2="437.5" gradientUnits="userSpaceOnUse">
<stop stop-color="#321D6F"/>
<stop offset="1" stop-color="#350845"/>
</linearGradient>
</defs>
</svg>
