<svg width="986" height="506" viewBox="0 0 986 506" fill="none" xmlns="http://www.w3.org/2000/svg">
<path d="M320 67.5C266.683 129.395 127.727 272.979 121.392 278.047L88.1347 308.929V414.5L985.5 505.5L910 315.5L865.865 278.047L786.5 166.5L738 108L709 91.5L662.5 64L611 90L589 58.5L550 39L493.5 0L481 23.5L420 98H373L336 76.5L320 67.5Z" fill="#260A37"/>
<path d="M209 138C155.683 199.895 67.5918 272.979 61.2571 278.047L31.5 318L7 422.5L0 471L855.865 308.929L778.265 224.994L709.5 111L667.5 92L662.5 64L574.5 86.0265L554.5 67.5L501.5 48.5L493.5 0L421.5 59.5L371.5 89.5L332.5 98.5L320 67.5L265 97.5L209 138Z" fill="#6A2B9B"/>
<path d="M218.392 138.288C165.075 200.183 82.5918 272.979 76.2571 278.047L41.5 351.5L0 471L90 483L267.5 500H636H954.5L870.865 308.929L793.265 224.994L729.5 121.5L682.5 92L662.5 64L641 78L578 88L569.5 67.5L516.5 48.5L493.5 0L456.5 67.5L370 114L332.5 98.5L320 67.5L292 98.5L218.392 138.288Z" fill="url(#paint0_linear_27_55)"/>
<defs>
<linearGradient id="paint0_linear_27_55" x1="456.933" y1="0" x2="456.933" y2="308.929" gradientUnits="userSpaceOnUse">
<stop stop-color="#602B96"/>
<stop offset="1" stop-color="#430857"/>
</linearGradient>
</defs>
</svg>
