<svg width="1521" height="677" viewBox="0 0 1521 677" fill="none" xmlns="http://www.w3.org/2000/svg">
<g id="mountains-image">
<rect id="background" width="1521" height="677" fill="url(#paint0_linear_5_214)"/>
<g id="clouds" opacity="0.15">
<g id="top">
<g id="cloud-top-1">
<path d="M98 -50C98 -35.6406 86.3594 -24 72 -24C57.6406 -24 46 -35.6406 46 -50C46 -64.3594 57.6406 -76 72 -76C86.3594 -76 98 -64.3594 98 -50Z" fill="white"/>
<path d="M29 -63C29 -48.6406 17.3594 -37 3 -37C-11.3594 -37 -23 -48.6406 -23 -63C-23 -77.3594 -11.3594 -89 3 -89C17.3594 -89 29 -77.3594 29 -63Z" fill="white"/>
<path d="M72 -67C72 -50.4315 58.5685 -37 42 -37C25.4315 -37 12 -50.4315 12 -67C12 -83.5685 25.4315 -97 42 -97C58.5685 -97 72 -83.5685 72 -67Z" fill="white"/>
<path d="M-3 -80C-3 -63.4315 -16.4315 -50 -33 -50C-49.5685 -50 -63 -63.4315 -63 -80C-63 -96.5685 -49.5685 -110 -33 -110C-16.4315 -110 -3 -96.5685 -3 -80Z" fill="white"/>
<path d="M-38 -59C-38 -42.4315 -51.4315 -29 -68 -29C-84.5685 -29 -98 -42.4315 -98 -59C-98 -75.5685 -84.5685 -89 -68 -89C-51.4315 -89 -38 -75.5685 -38 -59Z" fill="white"/>
<path d="M-8 0C-8 18.7777 -23.2223 34 -42 34C-60.7777 34 -76 18.7777 -76 0C-76 -18.7777 -60.7777 -34 -42 -34C-23.2223 -34 -8 -18.7777 -8 0Z" fill="white"/>
<path d="M18 17C18 28.598 8.59798 38 -3 38C-14.598 38 -24 28.598 -24 17C-24 5.40202 -14.598 -4 -3 -4C8.59798 -4 18 5.40202 18 17Z" fill="white"/>
<path d="M98 -16C98 -4.40202 88.598 5 77 5C65.402 5 56 -4.40202 56 -16C56 -27.598 65.402 -37 77 -37C88.598 -37 98 -27.598 98 -16Z" fill="white"/>
<path d="M-61 -32.5C-61 -20.0736 -71.0736 -10 -83.5 -10C-95.9264 -10 -106 -20.0736 -106 -32.5C-106 -44.9264 -95.9264 -55 -83.5 -55C-71.0736 -55 -61 -44.9264 -61 -32.5Z" fill="white"/>
<path d="M-54 -5.5C-54 6.92641 -64.0736 17 -76.5 17C-88.9264 17 -99 6.92641 -99 -5.5C-99 -17.9264 -88.9264 -28 -76.5 -28C-64.0736 -28 -54 -17.9264 -54 -5.5Z" fill="white"/>
<path d="M72 3.5C72 22.5538 56.5538 38 37.5 38C18.4462 38 3 22.5538 3 3.5C3 -15.5538 18.4462 -31 37.5 -31C56.5538 -31 72 -15.5538 72 3.5Z" fill="white"/>
<path d="M-76 -63H69V0H-76V-63Z" fill="white"/>
<path d="M31 42C31 58.5685 17.5685 72 1 72C-15.5685 72 -29 58.5685 -29 42C-29 25.4315 -15.5685 12 1 12C17.5685 12 31 25.4315 31 42Z" fill="white"/>
<path d="M124.5 38C124.5 54.5685 111.069 68 94.5 68C77.9315 68 64.5 54.5685 64.5 38C64.5 21.4315 77.9315 8 94.5 8C111.069 8 124.5 21.4315 124.5 38Z" fill="white"/>
<path d="M61.5 15C61.5 29.3594 49.8594 41 35.5 41C21.1406 41 9.5 29.3594 9.5 15C9.5 0.640594 21.1406 -11 35.5 -11C49.8594 -11 61.5 0.640594 61.5 15Z" fill="white"/>
<path d="M83.5 7C83.5 16.9411 75.4411 25 65.5 25C55.5589 25 47.5 16.9411 47.5 7C47.5 -2.94112 55.5589 -11 65.5 -11C75.4411 -11 83.5 -2.94112 83.5 7Z" fill="white"/>
<path d="M136.5 -6.5C136.5 10.897 122.397 25 105 25C87.603 25 73.5 10.897 73.5 -6.5C73.5 -23.897 87.603 -38 105 -38C122.397 -38 136.5 -23.897 136.5 -6.5Z" fill="white"/>
<path d="M187.5 12C187.5 32.9868 170.487 50 149.5 50C128.513 50 111.5 32.9868 111.5 12C111.5 -8.98682 128.513 -26 149.5 -26C170.487 -26 187.5 -8.98682 187.5 12Z" fill="white"/>
<path d="M224.5 50C224.5 70.9868 207.487 88 186.5 88C165.513 88 148.5 70.9868 148.5 50C148.5 29.0132 165.513 12 186.5 12C207.487 12 224.5 29.0132 224.5 50Z" fill="white"/>
<path d="M169.5 67.5C169.5 92.0767 149.577 112 125 112C100.423 112 80.5 92.0767 80.5 67.5C80.5 42.9233 100.423 23 125 23C149.577 23 169.5 42.9233 169.5 67.5Z" fill="white"/>
<path d="M94.5 63.5C94.5 88.0767 74.5767 108 50 108C25.4233 108 5.5 88.0767 5.5 63.5C5.5 38.9233 25.4233 19 50 19C74.5767 19 94.5 38.9233 94.5 63.5Z" fill="white"/>
<path d="M147 -33C147 -16.4315 133.569 -3 117 -3C100.431 -3 87 -16.4315 87 -33C87 -49.5685 100.431 -63 117 -63C133.569 -63 147 -49.5685 147 -33Z" fill="white"/>
<path d="M240.5 -37C240.5 -20.4315 227.069 -7 210.5 -7C193.931 -7 180.5 -20.4315 180.5 -37C180.5 -53.5685 193.931 -67 210.5 -67C227.069 -67 240.5 -53.5685 240.5 -37Z" fill="white"/>
<path d="M177.5 -60C177.5 -45.6406 165.859 -34 151.5 -34C137.141 -34 125.5 -45.6406 125.5 -60C125.5 -74.3594 137.141 -86 151.5 -86C165.859 -86 177.5 -74.3594 177.5 -60Z" fill="white"/>
<path d="M199.5 -68C199.5 -58.0589 191.441 -50 181.5 -50C171.559 -50 163.5 -58.0589 163.5 -68C163.5 -77.9411 171.559 -86 181.5 -86C191.441 -86 199.5 -77.9411 199.5 -68Z" fill="white"/>
<path d="M252.5 -81.5C252.5 -64.103 238.397 -50 221 -50C203.603 -50 189.5 -64.103 189.5 -81.5C189.5 -98.897 203.603 -113 221 -113C238.397 -113 252.5 -98.897 252.5 -81.5Z" fill="white"/>
<path d="M303.5 -63C303.5 -42.0132 286.487 -25 265.5 -25C244.513 -25 227.5 -42.0132 227.5 -63C227.5 -83.9868 244.513 -101 265.5 -101C286.487 -101 303.5 -83.9868 303.5 -63Z" fill="white"/>
<path d="M340.5 -25C340.5 -4.01318 323.487 13 302.5 13C281.513 13 264.5 -4.01318 264.5 -25C264.5 -45.9868 281.513 -63 302.5 -63C323.487 -63 340.5 -45.9868 340.5 -25Z" fill="white"/>
<path d="M285.5 -7.5C285.5 17.0767 265.577 37 241 37C216.423 37 196.5 17.0767 196.5 -7.5C196.5 -32.0767 216.423 -52 241 -52C265.577 -52 285.5 -32.0767 285.5 -7.5Z" fill="white"/>
<path d="M210.5 -11.5C210.5 13.0767 190.577 33 166 33C141.423 33 121.5 13.0767 121.5 -11.5C121.5 -36.0767 141.423 -56 166 -56C190.577 -56 210.5 -36.0767 210.5 -11.5Z" fill="white"/>
<path d="M287.5 -86C287.5 -71.6406 299.141 -60 313.5 -60C327.859 -60 339.5 -71.6406 339.5 -86C339.5 -100.359 327.859 -112 313.5 -112C299.141 -112 287.5 -100.359 287.5 -86Z" fill="white"/>
<path d="M356.5 -99C356.5 -84.6406 368.141 -73 382.5 -73C396.859 -73 408.5 -84.6406 408.5 -99C408.5 -113.359 396.859 -125 382.5 -125C368.141 -125 356.5 -113.359 356.5 -99Z" fill="white"/>
<path d="M313.5 -103C313.5 -86.4315 326.931 -73 343.5 -73C360.069 -73 373.5 -86.4315 373.5 -103C373.5 -119.569 360.069 -133 343.5 -133C326.931 -133 313.5 -119.569 313.5 -103Z" fill="white"/>
<path d="M388.5 -116C388.5 -99.4315 401.931 -86 418.5 -86C435.069 -86 448.5 -99.4315 448.5 -116C448.5 -132.569 435.069 -146 418.5 -146C401.931 -146 388.5 -132.569 388.5 -116Z" fill="white"/>
<path d="M423.5 -95C423.5 -78.4315 436.931 -65 453.5 -65C470.069 -65 483.5 -78.4315 483.5 -95C483.5 -111.569 470.069 -125 453.5 -125C436.931 -125 423.5 -111.569 423.5 -95Z" fill="white"/>
<path d="M393.5 -36C393.5 -17.2223 408.722 -2 427.5 -2C446.278 -2 461.5 -17.2223 461.5 -36C461.5 -54.7777 446.278 -70 427.5 -70C408.722 -70 393.5 -54.7777 393.5 -36Z" fill="white"/>
<path d="M367.5 -19C367.5 -7.40202 376.902 2 388.5 2C400.098 2 409.5 -7.40202 409.5 -19C409.5 -30.598 400.098 -40 388.5 -40C376.902 -40 367.5 -30.598 367.5 -19Z" fill="white"/>
<path d="M287.5 -52C287.5 -40.402 296.902 -31 308.5 -31C320.098 -31 329.5 -40.402 329.5 -52C329.5 -63.598 320.098 -73 308.5 -73C296.902 -73 287.5 -63.598 287.5 -52Z" fill="white"/>
<path d="M446.5 -68.5C446.5 -56.0736 456.574 -46 469 -46C481.426 -46 491.5 -56.0736 491.5 -68.5C491.5 -80.9264 481.426 -91 469 -91C456.574 -91 446.5 -80.9264 446.5 -68.5Z" fill="white"/>
<path d="M439.5 -41.5C439.5 -29.0736 449.574 -19 462 -19C474.426 -19 484.5 -29.0736 484.5 -41.5C484.5 -53.9264 474.426 -64 462 -64C449.574 -64 439.5 -53.9264 439.5 -41.5Z" fill="white"/>
<path d="M313.5 -32.5C313.5 -13.4462 328.946 2 348 2C367.054 2 382.5 -13.4462 382.5 -32.5C382.5 -51.5538 367.054 -67 348 -67C328.946 -67 313.5 -51.5538 313.5 -32.5Z" fill="white"/>
<path d="M461.5 -99H316.5V-36H461.5V-99Z" fill="white"/>
<path d="M345.5 8C345.5 24.5685 358.931 38 375.5 38C392.069 38 405.5 24.5685 405.5 8C405.5 -8.56854 392.069 -22 375.5 -22C358.931 -22 345.5 -8.56854 345.5 8Z" fill="white"/>
<path d="M252 4C252 20.5685 265.431 34 282 34C298.569 34 312 20.5685 312 4C312 -12.5685 298.569 -26 282 -26C265.431 -26 252 -12.5685 252 4Z" fill="white"/>
<path d="M315 -19C315 -4.64059 326.641 7 341 7C355.359 7 367 -4.64059 367 -19C367 -33.3594 355.359 -45 341 -45C326.641 -45 315 -33.3594 315 -19Z" fill="white"/>
<path d="M293 -27C293 -17.0589 301.059 -9 311 -9C320.941 -9 329 -17.0589 329 -27C329 -36.9411 320.941 -45 311 -45C301.059 -45 293 -36.9411 293 -27Z" fill="white"/>
<path d="M240 -40.5C240 -23.103 254.103 -9 271.5 -9C288.897 -9 303 -23.103 303 -40.5C303 -57.897 288.897 -72 271.5 -72C254.103 -72 240 -57.897 240 -40.5Z" fill="white"/>
<path d="M189 -22C189 -1.01318 206.013 16 227 16C247.987 16 265 -1.01318 265 -22C265 -42.9868 247.987 -60 227 -60C206.013 -60 189 -42.9868 189 -22Z" fill="white"/>
<path d="M152 16C152 36.9868 169.013 54 190 54C210.987 54 228 36.9868 228 16C228 -4.98682 210.987 -22 190 -22C169.013 -22 152 -4.98682 152 16Z" fill="white"/>
<path d="M207 33.5C207 58.0767 226.923 78 251.5 78C276.077 78 296 58.0767 296 33.5C296 8.92332 276.077 -11 251.5 -11C226.923 -11 207 8.92332 207 33.5Z" fill="white"/>
<path d="M282 29.5C282 54.0767 301.923 74 326.5 74C351.077 74 371 54.0767 371 29.5C371 4.92332 351.077 -15 326.5 -15C301.923 -15 282 4.92332 282 29.5Z" fill="white"/>
<path d="M238.5 -69C238.5 -52.4315 251.931 -39 268.5 -39C285.069 -39 298.5 -52.4315 298.5 -69C298.5 -85.5685 285.069 -99 268.5 -99C251.931 -99 238.5 -85.5685 238.5 -69Z" fill="white"/>
<path d="M145 -73C145 -56.4315 158.431 -43 175 -43C191.569 -43 205 -56.4315 205 -73C205 -89.5685 191.569 -103 175 -103C158.431 -103 145 -89.5685 145 -73Z" fill="white"/>
<path d="M208 -96C208 -81.6406 219.641 -70 234 -70C248.359 -70 260 -81.6406 260 -96C260 -110.359 248.359 -122 234 -122C219.641 -122 208 -110.359 208 -96Z" fill="white"/>
<path d="M186 -104C186 -94.0589 194.059 -86 204 -86C213.941 -86 222 -94.0589 222 -104C222 -113.941 213.941 -122 204 -122C194.059 -122 186 -113.941 186 -104Z" fill="white"/>
<path d="M133 -117.5C133 -100.103 147.103 -86 164.5 -86C181.897 -86 196 -100.103 196 -117.5C196 -134.897 181.897 -149 164.5 -149C147.103 -149 133 -134.897 133 -117.5Z" fill="white"/>
<path d="M82 -99C82 -78.0132 99.0132 -61 120 -61C140.987 -61 158 -78.0132 158 -99C158 -119.987 140.987 -137 120 -137C99.0132 -137 82 -119.987 82 -99Z" fill="white"/>
<path d="M45 -61C45 -40.0132 62.0132 -23 83 -23C103.987 -23 121 -40.0132 121 -61C121 -81.9868 103.987 -99 83 -99C62.0132 -99 45 -81.9868 45 -61Z" fill="white"/>
<path d="M100 -43.5C100 -18.9233 119.923 1 144.5 1C169.077 1 189 -18.9233 189 -43.5C189 -68.0767 169.077 -88 144.5 -88C119.923 -88 100 -68.0767 100 -43.5Z" fill="white"/>
<path d="M175 -47.5C175 -22.9233 194.923 -3 219.5 -3C244.077 -3 264 -22.9233 264 -47.5C264 -72.0767 244.077 -92 219.5 -92C194.923 -92 175 -72.0767 175 -47.5Z" fill="white"/>
<path d="M-66.5 24C-66.5 38.3594 -54.8594 50 -40.5 50C-26.1406 50 -14.5 38.3594 -14.5 24C-14.5 9.64059 -26.1406 -2 -40.5 -2C-54.8594 -2 -66.5 9.64059 -66.5 24Z" fill="white"/>
<path d="M2.5 11C2.5 25.3594 14.1406 37 28.5 37C42.8594 37 54.5 25.3594 54.5 11C54.5 -3.35941 42.8594 -15 28.5 -15C14.1406 -15 2.5 -3.35941 2.5 11Z" fill="white"/>
<path d="M-40.5 7C-40.5 23.5685 -27.0685 37 -10.5 37C6.06854 37 19.5 23.5685 19.5 7C19.5 -9.56854 6.06854 -23 -10.5 -23C-27.0685 -23 -40.5 -9.56854 -40.5 7Z" fill="white"/>
<path d="M34.5 -6C34.5 10.5685 47.9315 24 64.5 24C81.0685 24 94.5 10.5685 94.5 -6C94.5 -22.5685 81.0685 -36 64.5 -36C47.9315 -36 34.5 -22.5685 34.5 -6Z" fill="white"/>
<path d="M69.5 15C69.5 31.5685 82.9315 45 99.5 45C116.069 45 129.5 31.5685 129.5 15C129.5 -1.56854 116.069 -15 99.5 -15C82.9315 -15 69.5 -1.56854 69.5 15Z" fill="white"/>
<path d="M39.5 74C39.5 92.7777 54.7223 108 73.5 108C92.2777 108 107.5 92.7777 107.5 74C107.5 55.2223 92.2777 40 73.5 40C54.7223 40 39.5 55.2223 39.5 74Z" fill="white"/>
<path d="M13.5 91C13.5 102.598 22.902 112 34.5 112C46.098 112 55.5 102.598 55.5 91C55.5 79.402 46.098 70 34.5 70C22.902 70 13.5 79.402 13.5 91Z" fill="white"/>
<path d="M-66.5 58C-66.5 69.598 -57.098 79 -45.5 79C-33.902 79 -24.5 69.598 -24.5 58C-24.5 46.402 -33.902 37 -45.5 37C-57.098 37 -66.5 46.402 -66.5 58Z" fill="white"/>
<path d="M92.5 41.5C92.5 53.9264 102.574 64 115 64C127.426 64 137.5 53.9264 137.5 41.5C137.5 29.0736 127.426 19 115 19C102.574 19 92.5 29.0736 92.5 41.5Z" fill="white"/>
<path d="M85.5 68.5C85.5 80.9264 95.5736 91 108 91C120.426 91 130.5 80.9264 130.5 68.5C130.5 56.0736 120.426 46 108 46C95.5736 46 85.5 56.0736 85.5 68.5Z" fill="white"/>
<path d="M-40.5 77.5C-40.5 96.5538 -25.0538 112 -6 112C13.0538 112 28.5 96.5538 28.5 77.5C28.5 58.4462 13.0538 43 -6 43C-25.0538 43 -40.5 58.4462 -40.5 77.5Z" fill="white"/>
<path d="M107.5 11H-37.5V74H107.5V11Z" fill="white"/>
<path d="M0.5 116C0.5 132.569 13.9315 146 30.5 146C47.0685 146 60.5 132.569 60.5 116C60.5 99.4315 47.0685 86 30.5 86C13.9315 86 0.5 99.4315 0.5 116Z" fill="white"/>
<path d="M-93 112C-93 128.569 -79.5685 142 -63 142C-46.4315 142 -33 128.569 -33 112C-33 95.4315 -46.4315 82 -63 82C-79.5685 82 -93 95.4315 -93 112Z" fill="white"/>
<path d="M-30 89C-30 103.359 -18.3594 115 -4 115C10.3594 115 22 103.359 22 89C22 74.6406 10.3594 63 -4 63C-18.3594 63 -30 74.6406 -30 89Z" fill="white"/>
<path d="M-52 81C-52 90.9411 -43.9411 99 -34 99C-24.0589 99 -16 90.9411 -16 81C-16 71.0589 -24.0589 63 -34 63C-43.9411 63 -52 71.0589 -52 81Z" fill="white"/>
<path d="M-105 67.5C-105 84.897 -90.897 99 -73.5 99C-56.103 99 -42 84.897 -42 67.5C-42 50.103 -56.103 36 -73.5 36C-90.897 36 -105 50.103 -105 67.5Z" fill="white"/>
<path d="M-156 86C-156 106.987 -138.987 124 -118 124C-97.0132 124 -80 106.987 -80 86C-80 65.0132 -97.0132 48 -118 48C-138.987 48 -156 65.0132 -156 86Z" fill="white"/>
<path d="M-193 124C-193 144.987 -175.987 162 -155 162C-134.013 162 -117 144.987 -117 124C-117 103.013 -134.013 86 -155 86C-175.987 86 -193 103.013 -193 124Z" fill="white"/>
<path d="M-138 141.5C-138 166.077 -118.077 186 -93.5 186C-68.9233 186 -49 166.077 -49 141.5C-49 116.923 -68.9233 97 -93.5 97C-118.077 97 -138 116.923 -138 141.5Z" fill="white"/>
<path d="M-63 137.5C-63 162.077 -43.0767 182 -18.5 182C6.07667 182 26 162.077 26 137.5C26 112.923 6.07667 93 -18.5 93C-43.0767 93 -63 112.923 -63 137.5Z" fill="white"/>
<path d="M-115.5 41C-115.5 57.5685 -102.069 71 -85.5 71C-68.9315 71 -55.5 57.5685 -55.5 41C-55.5 24.4315 -68.9315 11 -85.5 11C-102.069 11 -115.5 24.4315 -115.5 41Z" fill="white"/>
<path d="M-209 37C-209 53.5685 -195.569 67 -179 67C-162.431 67 -149 53.5685 -149 37C-149 20.4315 -162.431 7 -179 7C-195.569 7 -209 20.4315 -209 37Z" fill="white"/>
<path d="M-146 14C-146 28.3594 -134.359 40 -120 40C-105.641 40 -94 28.3594 -94 14C-94 -0.359406 -105.641 -12 -120 -12C-134.359 -12 -146 -0.359406 -146 14Z" fill="white"/>
<path d="M-168 6C-168 15.9411 -159.941 24 -150 24C-140.059 24 -132 15.9411 -132 6C-132 -3.94112 -140.059 -12 -150 -12C-159.941 -12 -168 -3.94112 -168 6Z" fill="white"/>
<path d="M-221 -7.5C-221 9.89697 -206.897 24 -189.5 24C-172.103 24 -158 9.89697 -158 -7.5C-158 -24.897 -172.103 -39 -189.5 -39C-206.897 -39 -221 -24.897 -221 -7.5Z" fill="white"/>
<path d="M-272 11C-272 31.9868 -254.987 49 -234 49C-213.013 49 -196 31.9868 -196 11C-196 -9.98682 -213.013 -27 -234 -27C-254.987 -27 -272 -9.98682 -272 11Z" fill="white"/>
<path d="M-309 49C-309 69.9868 -291.987 87 -271 87C-250.013 87 -233 69.9868 -233 49C-233 28.0132 -250.013 11 -271 11C-291.987 11 -309 28.0132 -309 49Z" fill="white"/>
<path d="M-254 66.5C-254 91.0767 -234.077 111 -209.5 111C-184.923 111 -165 91.0767 -165 66.5C-165 41.9233 -184.923 22 -209.5 22C-234.077 22 -254 41.9233 -254 66.5Z" fill="white"/>
<path d="M-179 62.5C-179 87.0767 -159.077 107 -134.5 107C-109.923 107 -90 87.0767 -90 62.5C-90 37.9233 -109.923 18 -134.5 18C-159.077 18 -179 37.9233 -179 62.5Z" fill="white"/>
</g>
<g id="cloud-top-2">
<path d="M1483.5 7C1483.5 21.3594 1495.14 33 1509.5 33C1523.86 33 1535.5 21.3594 1535.5 7C1535.5 -7.35941 1523.86 -19 1509.5 -19C1495.14 -19 1483.5 -7.35941 1483.5 7Z" fill="white"/>
<path d="M1552.5 -6C1552.5 8.35941 1564.14 20 1578.5 20C1592.86 20 1604.5 8.35941 1604.5 -6C1604.5 -20.3594 1592.86 -32 1578.5 -32C1564.14 -32 1552.5 -20.3594 1552.5 -6Z" fill="white"/>
<path d="M1509.5 -10C1509.5 6.56854 1522.93 20 1539.5 20C1556.07 20 1569.5 6.56854 1569.5 -10C1569.5 -26.5685 1556.07 -40 1539.5 -40C1522.93 -40 1509.5 -26.5685 1509.5 -10Z" fill="white"/>
<path d="M1584.5 -23C1584.5 -6.43146 1597.93 7 1614.5 7C1631.07 7 1644.5 -6.43146 1644.5 -23C1644.5 -39.5685 1631.07 -53 1614.5 -53C1597.93 -53 1584.5 -39.5685 1584.5 -23Z" fill="white"/>
<path d="M1619.5 -2C1619.5 14.5685 1632.93 28 1649.5 28C1666.07 28 1679.5 14.5685 1679.5 -2C1679.5 -18.5685 1666.07 -32 1649.5 -32C1632.93 -32 1619.5 -18.5685 1619.5 -2Z" fill="white"/>
<path d="M1589.5 57C1589.5 75.7777 1604.72 91 1623.5 91C1642.28 91 1657.5 75.7777 1657.5 57C1657.5 38.2223 1642.28 23 1623.5 23C1604.72 23 1589.5 38.2223 1589.5 57Z" fill="white"/>
<path d="M1563.5 74C1563.5 85.598 1572.9 95 1584.5 95C1596.1 95 1605.5 85.598 1605.5 74C1605.5 62.402 1596.1 53 1584.5 53C1572.9 53 1563.5 62.402 1563.5 74Z" fill="white"/>
<path d="M1483.5 41C1483.5 52.598 1492.9 62 1504.5 62C1516.1 62 1525.5 52.598 1525.5 41C1525.5 29.402 1516.1 20 1504.5 20C1492.9 20 1483.5 29.402 1483.5 41Z" fill="white"/>
<path d="M1642.5 24.5C1642.5 36.9264 1652.57 47 1665 47C1677.43 47 1687.5 36.9264 1687.5 24.5C1687.5 12.0736 1677.43 2 1665 2C1652.57 2 1642.5 12.0736 1642.5 24.5Z" fill="white"/>
<path d="M1635.5 51.5C1635.5 63.9264 1645.57 74 1658 74C1670.43 74 1680.5 63.9264 1680.5 51.5C1680.5 39.0736 1670.43 29 1658 29C1645.57 29 1635.5 39.0736 1635.5 51.5Z" fill="white"/>
<path d="M1509.5 60.5C1509.5 79.5538 1524.95 95 1544 95C1563.05 95 1578.5 79.5538 1578.5 60.5C1578.5 41.4462 1563.05 26 1544 26C1524.95 26 1509.5 41.4462 1509.5 60.5Z" fill="white"/>
<path d="M1657.5 -6H1512.5V57H1657.5V-6Z" fill="white"/>
<path d="M1550.5 99C1550.5 115.569 1563.93 129 1580.5 129C1597.07 129 1610.5 115.569 1610.5 99C1610.5 82.4315 1597.07 69 1580.5 69C1563.93 69 1550.5 82.4315 1550.5 99Z" fill="white"/>
<path d="M1457 95C1457 111.569 1470.43 125 1487 125C1503.57 125 1517 111.569 1517 95C1517 78.4315 1503.57 65 1487 65C1470.43 65 1457 78.4315 1457 95Z" fill="white"/>
<path d="M1520 72C1520 86.3594 1531.64 98 1546 98C1560.36 98 1572 86.3594 1572 72C1572 57.6406 1560.36 46 1546 46C1531.64 46 1520 57.6406 1520 72Z" fill="white"/>
<path d="M1498 64C1498 73.9411 1506.06 82 1516 82C1525.94 82 1534 73.9411 1534 64C1534 54.0589 1525.94 46 1516 46C1506.06 46 1498 54.0589 1498 64Z" fill="white"/>
<path d="M1445 50.5C1445 67.897 1459.1 82 1476.5 82C1493.9 82 1508 67.897 1508 50.5C1508 33.103 1493.9 19 1476.5 19C1459.1 19 1445 33.103 1445 50.5Z" fill="white"/>
<path d="M1394 69C1394 89.9868 1411.01 107 1432 107C1452.99 107 1470 89.9868 1470 69C1470 48.0132 1452.99 31 1432 31C1411.01 31 1394 48.0132 1394 69Z" fill="white"/>
<path d="M1357 107C1357 127.987 1374.01 145 1395 145C1415.99 145 1433 127.987 1433 107C1433 86.0132 1415.99 69 1395 69C1374.01 69 1357 86.0132 1357 107Z" fill="white"/>
<path d="M1412 124.5C1412 149.077 1431.92 169 1456.5 169C1481.08 169 1501 149.077 1501 124.5C1501 99.9233 1481.08 80 1456.5 80C1431.92 80 1412 99.9233 1412 124.5Z" fill="white"/>
<path d="M1487 120.5C1487 145.077 1506.92 165 1531.5 165C1556.08 165 1576 145.077 1576 120.5C1576 95.9233 1556.08 76 1531.5 76C1506.92 76 1487 95.9233 1487 120.5Z" fill="white"/>
<path d="M1434.5 24C1434.5 40.5685 1447.93 54 1464.5 54C1481.07 54 1494.5 40.5685 1494.5 24C1494.5 7.43146 1481.07 -6 1464.5 -6C1447.93 -6 1434.5 7.43146 1434.5 24Z" fill="white"/>
<path d="M1341 20C1341 36.5685 1354.43 50 1371 50C1387.57 50 1401 36.5685 1401 20C1401 3.43146 1387.57 -10 1371 -10C1354.43 -10 1341 3.43146 1341 20Z" fill="white"/>
<path d="M1404 -3C1404 11.3594 1415.64 23 1430 23C1444.36 23 1456 11.3594 1456 -3C1456 -17.3594 1444.36 -29 1430 -29C1415.64 -29 1404 -17.3594 1404 -3Z" fill="white"/>
<path d="M1382 -11C1382 -1.05888 1390.06 7 1400 7C1409.94 7 1418 -1.05888 1418 -11C1418 -20.9411 1409.94 -29 1400 -29C1390.06 -29 1382 -20.9411 1382 -11Z" fill="white"/>
<path d="M1329 -24.5C1329 -7.10303 1343.1 7 1360.5 7C1377.9 7 1392 -7.10303 1392 -24.5C1392 -41.897 1377.9 -56 1360.5 -56C1343.1 -56 1329 -41.897 1329 -24.5Z" fill="white"/>
<path d="M1278 -6C1278 14.9868 1295.01 32 1316 32C1336.99 32 1354 14.9868 1354 -6C1354 -26.9868 1336.99 -44 1316 -44C1295.01 -44 1278 -26.9868 1278 -6Z" fill="white"/>
<path d="M1241 32C1241 52.9868 1258.01 70 1279 70C1299.99 70 1317 52.9868 1317 32C1317 11.0132 1299.99 -6 1279 -6C1258.01 -6 1241 11.0132 1241 32Z" fill="white"/>
<path d="M1296 49.5C1296 74.0767 1315.92 94 1340.5 94C1365.08 94 1385 74.0767 1385 49.5C1385 24.9233 1365.08 5 1340.5 5C1315.92 5 1296 24.9233 1296 49.5Z" fill="white"/>
<path d="M1371 45.5C1371 70.0767 1390.92 90 1415.5 90C1440.08 90 1460 70.0767 1460 45.5C1460 20.9233 1440.08 1 1415.5 1C1390.92 1 1371 20.9233 1371 45.5Z" fill="white"/>
<path d="M1294 -29C1294 -14.6406 1282.36 -3 1268 -3C1253.64 -3 1242 -14.6406 1242 -29C1242 -43.3594 1253.64 -55 1268 -55C1282.36 -55 1294 -43.3594 1294 -29Z" fill="white"/>
<path d="M1225 -42C1225 -27.6406 1213.36 -16 1199 -16C1184.64 -16 1173 -27.6406 1173 -42C1173 -56.3594 1184.64 -68 1199 -68C1213.36 -68 1225 -56.3594 1225 -42Z" fill="white"/>
<path d="M1268 -46C1268 -29.4315 1254.57 -16 1238 -16C1221.43 -16 1208 -29.4315 1208 -46C1208 -62.5685 1221.43 -76 1238 -76C1254.57 -76 1268 -62.5685 1268 -46Z" fill="white"/>
<path d="M1193 -59C1193 -42.4315 1179.57 -29 1163 -29C1146.43 -29 1133 -42.4315 1133 -59C1133 -75.5685 1146.43 -89 1163 -89C1179.57 -89 1193 -75.5685 1193 -59Z" fill="white"/>
<path d="M1158 -38C1158 -21.4315 1144.57 -8 1128 -8C1111.43 -8 1098 -21.4315 1098 -38C1098 -54.5685 1111.43 -68 1128 -68C1144.57 -68 1158 -54.5685 1158 -38Z" fill="white"/>
<path d="M1188 21C1188 39.7777 1172.78 55 1154 55C1135.22 55 1120 39.7777 1120 21C1120 2.22232 1135.22 -13 1154 -13C1172.78 -13 1188 2.22232 1188 21Z" fill="white"/>
<path d="M1214 38C1214 49.598 1204.6 59 1193 59C1181.4 59 1172 49.598 1172 38C1172 26.402 1181.4 17 1193 17C1204.6 17 1214 26.402 1214 38Z" fill="white"/>
<path d="M1294 5C1294 16.598 1284.6 26 1273 26C1261.4 26 1252 16.598 1252 5C1252 -6.59798 1261.4 -16 1273 -16C1284.6 -16 1294 -6.59798 1294 5Z" fill="white"/>
<path d="M1135 -11.5C1135 0.926407 1124.93 11 1112.5 11C1100.07 11 1090 0.926407 1090 -11.5C1090 -23.9264 1100.07 -34 1112.5 -34C1124.93 -34 1135 -23.9264 1135 -11.5Z" fill="white"/>
<path d="M1142 15.5C1142 27.9264 1131.93 38 1119.5 38C1107.07 38 1097 27.9264 1097 15.5C1097 3.07359 1107.07 -7 1119.5 -7C1131.93 -7 1142 3.07359 1142 15.5Z" fill="white"/>
<path d="M1268 24.5C1268 43.5538 1252.55 59 1233.5 59C1214.45 59 1199 43.5538 1199 24.5C1199 5.44617 1214.45 -10 1233.5 -10C1252.55 -10 1268 5.44617 1268 24.5Z" fill="white"/>
<path d="M1120 -42H1265V21H1120V-42Z" fill="white"/>
<path d="M1227 63C1227 79.5685 1213.57 93 1197 93C1180.43 93 1167 79.5685 1167 63C1167 46.4315 1180.43 33 1197 33C1213.57 33 1227 46.4315 1227 63Z" fill="white"/>
<path d="M1320.5 59C1320.5 75.5685 1307.07 89 1290.5 89C1273.93 89 1260.5 75.5685 1260.5 59C1260.5 42.4315 1273.93 29 1290.5 29C1307.07 29 1320.5 42.4315 1320.5 59Z" fill="white"/>
<path d="M1257.5 36C1257.5 50.3594 1245.86 62 1231.5 62C1217.14 62 1205.5 50.3594 1205.5 36C1205.5 21.6406 1217.14 10 1231.5 10C1245.86 10 1257.5 21.6406 1257.5 36Z" fill="white"/>
<path d="M1279.5 28C1279.5 37.9411 1271.44 46 1261.5 46C1251.56 46 1243.5 37.9411 1243.5 28C1243.5 18.0589 1251.56 10 1261.5 10C1271.44 10 1279.5 18.0589 1279.5 28Z" fill="white"/>
<path d="M1332.5 14.5C1332.5 31.897 1318.4 46 1301 46C1283.6 46 1269.5 31.897 1269.5 14.5C1269.5 -2.89697 1283.6 -17 1301 -17C1318.4 -17 1332.5 -2.89697 1332.5 14.5Z" fill="white"/>
<path d="M1383.5 33C1383.5 53.9868 1366.49 71 1345.5 71C1324.51 71 1307.5 53.9868 1307.5 33C1307.5 12.0132 1324.51 -5 1345.5 -5C1366.49 -5 1383.5 12.0132 1383.5 33Z" fill="white"/>
<path d="M1420.5 71C1420.5 91.9868 1403.49 109 1382.5 109C1361.51 109 1344.5 91.9868 1344.5 71C1344.5 50.0132 1361.51 33 1382.5 33C1403.49 33 1420.5 50.0132 1420.5 71Z" fill="white"/>
<path d="M1365.5 88.5C1365.5 113.077 1345.58 133 1321 133C1296.42 133 1276.5 113.077 1276.5 88.5C1276.5 63.9233 1296.42 44 1321 44C1345.58 44 1365.5 63.9233 1365.5 88.5Z" fill="white"/>
<path d="M1290.5 84.5C1290.5 109.077 1270.58 129 1246 129C1221.42 129 1201.5 109.077 1201.5 84.5C1201.5 59.9233 1221.42 40 1246 40C1270.58 40 1290.5 59.9233 1290.5 84.5Z" fill="white"/>
<path d="M1343 -12C1343 4.56854 1329.57 18 1313 18C1296.43 18 1283 4.56854 1283 -12C1283 -28.5685 1296.43 -42 1313 -42C1329.57 -42 1343 -28.5685 1343 -12Z" fill="white"/>
<path d="M1436.5 -16C1436.5 0.568542 1423.07 14 1406.5 14C1389.93 14 1376.5 0.568542 1376.5 -16C1376.5 -32.5685 1389.93 -46 1406.5 -46C1423.07 -46 1436.5 -32.5685 1436.5 -16Z" fill="white"/>
<path d="M1373.5 -39C1373.5 -24.6406 1361.86 -13 1347.5 -13C1333.14 -13 1321.5 -24.6406 1321.5 -39C1321.5 -53.3594 1333.14 -65 1347.5 -65C1361.86 -65 1373.5 -53.3594 1373.5 -39Z" fill="white"/>
<path d="M1395.5 -47C1395.5 -37.0589 1387.44 -29 1377.5 -29C1367.56 -29 1359.5 -37.0589 1359.5 -47C1359.5 -56.9411 1367.56 -65 1377.5 -65C1387.44 -65 1395.5 -56.9411 1395.5 -47Z" fill="white"/>
<path d="M1448.5 -60.5C1448.5 -43.103 1434.4 -29 1417 -29C1399.6 -29 1385.5 -43.103 1385.5 -60.5C1385.5 -77.897 1399.6 -92 1417 -92C1434.4 -92 1448.5 -77.897 1448.5 -60.5Z" fill="white"/>
<path d="M1499.5 -42C1499.5 -21.0132 1482.49 -4 1461.5 -4C1440.51 -4 1423.5 -21.0132 1423.5 -42C1423.5 -62.9868 1440.51 -80 1461.5 -80C1482.49 -80 1499.5 -62.9868 1499.5 -42Z" fill="white"/>
<path d="M1536.5 -4C1536.5 16.9868 1519.49 34 1498.5 34C1477.51 34 1460.5 16.9868 1460.5 -4C1460.5 -24.9868 1477.51 -42 1498.5 -42C1519.49 -42 1536.5 -24.9868 1536.5 -4Z" fill="white"/>
<path d="M1481.5 13.5C1481.5 38.0767 1461.58 58 1437 58C1412.42 58 1392.5 38.0767 1392.5 13.5C1392.5 -11.0767 1412.42 -31 1437 -31C1461.58 -31 1481.5 -11.0767 1481.5 13.5Z" fill="white"/>
<path d="M1406.5 9.5C1406.5 34.0767 1386.58 54 1362 54C1337.42 54 1317.5 34.0767 1317.5 9.5C1317.5 -15.0767 1337.42 -35 1362 -35C1386.58 -35 1406.5 -15.0767 1406.5 9.5Z" fill="white"/>
</g>
</g>
<g id="bottom" opacity="0.3">
<g id="cloud-bottom-2">
<path d="M1079 391C1079 405.359 1090.64 417 1105 417C1119.36 417 1131 405.359 1131 391C1131 376.641 1119.36 365 1105 365C1090.64 365 1079 376.641 1079 391Z" fill="white"/>
<path d="M1148 378C1148 392.359 1159.64 404 1174 404C1188.36 404 1200 392.359 1200 378C1200 363.641 1188.36 352 1174 352C1159.64 352 1148 363.641 1148 378Z" fill="white"/>
<path d="M1105 374C1105 390.569 1118.43 404 1135 404C1151.57 404 1165 390.569 1165 374C1165 357.431 1151.57 344 1135 344C1118.43 344 1105 357.431 1105 374Z" fill="white"/>
<path d="M1180 361C1180 377.569 1193.43 391 1210 391C1226.57 391 1240 377.569 1240 361C1240 344.431 1226.57 331 1210 331C1193.43 331 1180 344.431 1180 361Z" fill="white"/>
<path d="M1215 382C1215 398.569 1228.43 412 1245 412C1261.57 412 1275 398.569 1275 382C1275 365.431 1261.57 352 1245 352C1228.43 352 1215 365.431 1215 382Z" fill="white"/>
<path d="M1185 441C1185 459.778 1200.22 475 1219 475C1237.78 475 1253 459.778 1253 441C1253 422.222 1237.78 407 1219 407C1200.22 407 1185 422.222 1185 441Z" fill="white"/>
<path d="M1159 458C1159 469.598 1168.4 479 1180 479C1191.6 479 1201 469.598 1201 458C1201 446.402 1191.6 437 1180 437C1168.4 437 1159 446.402 1159 458Z" fill="white"/>
<path d="M1079 425C1079 436.598 1088.4 446 1100 446C1111.6 446 1121 436.598 1121 425C1121 413.402 1111.6 404 1100 404C1088.4 404 1079 413.402 1079 425Z" fill="white"/>
<path d="M1238 408.5C1238 420.926 1248.07 431 1260.5 431C1272.93 431 1283 420.926 1283 408.5C1283 396.074 1272.93 386 1260.5 386C1248.07 386 1238 396.074 1238 408.5Z" fill="white"/>
<path d="M1231 435.5C1231 447.926 1241.07 458 1253.5 458C1265.93 458 1276 447.926 1276 435.5C1276 423.074 1265.93 413 1253.5 413C1241.07 413 1231 423.074 1231 435.5Z" fill="white"/>
<path d="M1105 444.5C1105 463.554 1120.45 479 1139.5 479C1158.55 479 1174 463.554 1174 444.5C1174 425.446 1158.55 410 1139.5 410C1120.45 410 1105 425.446 1105 444.5Z" fill="white"/>
<path d="M1253 378H1108V441H1253V378Z" fill="white"/>
<path d="M1599 477.5C1599 500.972 1579.97 520 1556.5 520C1533.03 520 1514 500.972 1514 477.5C1514 454.028 1533.03 435 1556.5 435C1579.97 435 1599 454.028 1599 477.5Z" fill="white"/>
<path d="M1492 453.5C1492 471.449 1477.45 486 1459.5 486C1441.55 486 1427 471.449 1427 453.5C1427 435.551 1441.55 421 1459.5 421C1477.45 421 1492 435.551 1492 453.5Z" fill="white"/>
<path d="M1476 509.5C1476 520.822 1466.82 530 1455.5 530C1444.18 530 1435 520.822 1435 509.5C1435 498.178 1444.18 489 1455.5 489C1466.82 489 1476 498.178 1476 509.5Z" fill="white"/>
<path d="M1456 482.5C1456 502.658 1439.66 519 1419.5 519C1399.34 519 1383 502.658 1383 482.5C1383 462.342 1399.34 446 1419.5 446C1439.66 446 1456 462.342 1456 482.5Z" fill="white"/>
<path d="M1576 441C1576 470.271 1552.27 494 1523 494C1493.73 494 1470 470.271 1470 441C1470 411.729 1493.73 388 1523 388C1552.27 388 1576 411.729 1576 441Z" fill="white"/>
<path d="M1562 483C1562 512.271 1538.27 536 1509 536C1479.73 536 1456 512.271 1456 483C1456 453.729 1479.73 430 1509 430C1538.27 430 1562 453.729 1562 483Z" fill="white"/>
<path d="M1322.5 468C1322.5 484.569 1335.93 498 1352.5 498C1369.07 498 1382.5 484.569 1382.5 468C1382.5 451.431 1369.07 438 1352.5 438C1335.93 438 1322.5 451.431 1322.5 468Z" fill="white"/>
<path d="M1229 464C1229 480.569 1242.43 494 1259 494C1275.57 494 1289 480.569 1289 464C1289 447.431 1275.57 434 1259 434C1242.43 434 1229 447.431 1229 464Z" fill="white"/>
<path d="M1292 441C1292 455.359 1303.64 467 1318 467C1332.36 467 1344 455.359 1344 441C1344 426.641 1332.36 415 1318 415C1303.64 415 1292 426.641 1292 441Z" fill="white"/>
<path d="M1270 433C1270 442.941 1278.06 451 1288 451C1297.94 451 1306 442.941 1306 433C1306 423.059 1297.94 415 1288 415C1278.06 415 1270 423.059 1270 433Z" fill="white"/>
<path d="M1217 419.5C1217 436.897 1231.1 451 1248.5 451C1265.9 451 1280 436.897 1280 419.5C1280 402.103 1265.9 388 1248.5 388C1231.1 388 1217 402.103 1217 419.5Z" fill="white"/>
<path d="M1166 438C1166 458.987 1183.01 476 1204 476C1224.99 476 1242 458.987 1242 438C1242 417.013 1224.99 400 1204 400C1183.01 400 1166 417.013 1166 438Z" fill="white"/>
<path d="M1129 476C1129 496.987 1146.01 514 1167 514C1187.99 514 1205 496.987 1205 476C1205 455.013 1187.99 438 1167 438C1146.01 438 1129 455.013 1129 476Z" fill="white"/>
<path d="M1184 493.5C1184 518.077 1203.92 538 1228.5 538C1253.08 538 1273 518.077 1273 493.5C1273 468.923 1253.08 449 1228.5 449C1203.92 449 1184 468.923 1184 493.5Z" fill="white"/>
<path d="M1259 489.5C1259 514.077 1278.92 534 1303.5 534C1328.08 534 1348 514.077 1348 489.5C1348 464.923 1328.08 445 1303.5 445C1278.92 445 1259 464.923 1259 489.5Z" fill="white"/>
<path d="M959 457C959 473.569 945.569 487 929 487C912.431 487 899 473.569 899 457C899 440.431 912.431 427 929 427C945.569 427 959 440.431 959 457Z" fill="white"/>
<path d="M1052.5 453C1052.5 469.569 1039.07 483 1022.5 483C1005.93 483 992.5 469.569 992.5 453C992.5 436.431 1005.93 423 1022.5 423C1039.07 423 1052.5 436.431 1052.5 453Z" fill="white"/>
<path d="M989.5 430C989.5 444.359 977.859 456 963.5 456C949.141 456 937.5 444.359 937.5 430C937.5 415.641 949.141 404 963.5 404C977.859 404 989.5 415.641 989.5 430Z" fill="white"/>
<path d="M1011.5 422C1011.5 431.941 1003.44 440 993.5 440C983.559 440 975.5 431.941 975.5 422C975.5 412.059 983.559 404 993.5 404C1003.44 404 1011.5 412.059 1011.5 422Z" fill="white"/>
<path d="M1064.5 408.5C1064.5 425.897 1050.4 440 1033 440C1015.6 440 1001.5 425.897 1001.5 408.5C1001.5 391.103 1015.6 377 1033 377C1050.4 377 1064.5 391.103 1064.5 408.5Z" fill="white"/>
<path d="M1115.5 427C1115.5 447.987 1098.49 465 1077.5 465C1056.51 465 1039.5 447.987 1039.5 427C1039.5 406.013 1056.51 389 1077.5 389C1098.49 389 1115.5 406.013 1115.5 427Z" fill="white"/>
<path d="M1152.5 465C1152.5 485.987 1135.49 503 1114.5 503C1093.51 503 1076.5 485.987 1076.5 465C1076.5 444.013 1093.51 427 1114.5 427C1135.49 427 1152.5 444.013 1152.5 465Z" fill="white"/>
<path d="M1097.5 482.5C1097.5 507.077 1077.58 527 1053 527C1028.42 527 1008.5 507.077 1008.5 482.5C1008.5 457.923 1028.42 438 1053 438C1077.58 438 1097.5 457.923 1097.5 482.5Z" fill="white"/>
<path d="M1022.5 478.5C1022.5 503.077 1002.58 523 978 523C953.423 523 933.5 503.077 933.5 478.5C933.5 453.923 953.423 434 978 434C1002.58 434 1022.5 453.923 1022.5 478.5Z" fill="white"/>
</g>
<g id="cloud-bottom-1">
<path d="M173 446C173 460.359 184.641 472 199 472C213.359 472 225 460.359 225 446C225 431.641 213.359 420 199 420C184.641 420 173 431.641 173 446Z" fill="white"/>
<path d="M242 433C242 447.359 253.641 459 268 459C282.359 459 294 447.359 294 433C294 418.641 282.359 407 268 407C253.641 407 242 418.641 242 433Z" fill="white"/>
<path d="M199 429C199 445.569 212.431 459 229 459C245.569 459 259 445.569 259 429C259 412.431 245.569 399 229 399C212.431 399 199 412.431 199 429Z" fill="white"/>
<path d="M274 416C274 432.569 287.431 446 304 446C320.569 446 334 432.569 334 416C334 399.431 320.569 386 304 386C287.431 386 274 399.431 274 416Z" fill="white"/>
<path d="M309 437C309 453.569 322.431 467 339 467C355.569 467 369 453.569 369 437C369 420.431 355.569 407 339 407C322.431 407 309 420.431 309 437Z" fill="white"/>
<path d="M279 496C279 514.778 294.222 530 313 530C331.778 530 347 514.778 347 496C347 477.222 331.778 462 313 462C294.222 462 279 477.222 279 496Z" fill="white"/>
<path d="M253 513C253 524.598 262.402 534 274 534C285.598 534 295 524.598 295 513C295 501.402 285.598 492 274 492C262.402 492 253 501.402 253 513Z" fill="white"/>
<path d="M173 480C173 491.598 182.402 501 194 501C205.598 501 215 491.598 215 480C215 468.402 205.598 459 194 459C182.402 459 173 468.402 173 480Z" fill="white"/>
<path d="M332 463.5C332 475.926 342.074 486 354.5 486C366.926 486 377 475.926 377 463.5C377 451.074 366.926 441 354.5 441C342.074 441 332 451.074 332 463.5Z" fill="white"/>
<path d="M325 490.5C325 502.926 335.074 513 347.5 513C359.926 513 370 502.926 370 490.5C370 478.074 359.926 468 347.5 468C335.074 468 325 478.074 325 490.5Z" fill="white"/>
<path d="M199 499.5C199 518.554 214.446 534 233.5 534C252.554 534 268 518.554 268 499.5C268 480.446 252.554 465 233.5 465C214.446 465 199 480.446 199 499.5Z" fill="white"/>
<path d="M347 433H202V496H347V433Z" fill="white"/>
<path d="M723 568.5C723 591.972 703.972 611 680.5 611C657.028 611 638 591.972 638 568.5C638 545.028 657.028 526 680.5 526C703.972 526 723 545.028 723 568.5Z" fill="white"/>
<path d="M616 544.5C616 562.449 601.449 577 583.5 577C565.551 577 551 562.449 551 544.5C551 526.551 565.551 512 583.5 512C601.449 512 616 526.551 616 544.5Z" fill="white"/>
<path d="M600 600.5C600 611.822 590.822 621 579.5 621C568.178 621 559 611.822 559 600.5C559 589.178 568.178 580 579.5 580C590.822 580 600 589.178 600 600.5Z" fill="white"/>
<path d="M580 573.5C580 593.658 563.658 610 543.5 610C523.342 610 507 593.658 507 573.5C507 553.342 523.342 537 543.5 537C563.658 537 580 553.342 580 573.5Z" fill="white"/>
<path d="M700 532C700 561.271 676.271 585 647 585C617.729 585 594 561.271 594 532C594 502.729 617.729 479 647 479C676.271 479 700 502.729 700 532Z" fill="white"/>
<path d="M686 574C686 603.271 662.271 627 633 627C603.729 627 580 603.271 580 574C580 544.729 603.729 521 633 521C662.271 521 686 544.729 686 574Z" fill="white"/>
<path d="M875 606.5C875 629.972 855.972 649 832.5 649C809.028 649 790 629.972 790 606.5C790 583.028 809.028 564 832.5 564C855.972 564 875 583.028 875 606.5Z" fill="white"/>
<path d="M768 582.5C768 600.449 753.449 615 735.5 615C717.551 615 703 600.449 703 582.5C703 564.551 717.551 550 735.5 550C753.449 550 768 564.551 768 582.5Z" fill="white"/>
<path d="M752 638.5C752 649.822 742.822 659 731.5 659C720.178 659 711 649.822 711 638.5C711 627.178 720.178 618 731.5 618C742.822 618 752 627.178 752 638.5Z" fill="white"/>
<path d="M732 611.5C732 631.658 715.658 648 695.5 648C675.342 648 659 631.658 659 611.5C659 591.342 675.342 575 695.5 575C715.658 575 732 591.342 732 611.5Z" fill="white"/>
<path d="M852 570C852 599.271 828.271 623 799 623C769.729 623 746 599.271 746 570C746 540.729 769.729 517 799 517C828.271 517 852 540.729 852 570Z" fill="white"/>
<path d="M838 612C838 641.271 814.271 665 785 665C755.729 665 732 641.271 732 612C732 582.729 755.729 559 785 559C814.271 559 838 582.729 838 612Z" fill="white"/>
<path d="M817 581.5C817 604.972 836.028 624 859.5 624C882.972 624 902 604.972 902 581.5C902 558.028 882.972 539 859.5 539C836.028 539 817 558.028 817 581.5Z" fill="white"/>
<path d="M924 557.5C924 575.449 938.551 590 956.5 590C974.449 590 989 575.449 989 557.5C989 539.551 974.449 525 956.5 525C938.551 525 924 539.551 924 557.5Z" fill="white"/>
<path d="M940 613.5C940 624.822 949.178 634 960.5 634C971.822 634 981 624.822 981 613.5C981 602.178 971.822 593 960.5 593C949.178 593 940 602.178 940 613.5Z" fill="white"/>
<path d="M960 586.5C960 606.658 976.342 623 996.5 623C1016.66 623 1033 606.658 1033 586.5C1033 566.342 1016.66 550 996.5 550C976.342 550 960 566.342 960 586.5Z" fill="white"/>
<path d="M840 545C840 574.271 863.729 598 893 598C922.271 598 946 574.271 946 545C946 515.729 922.271 492 893 492C863.729 492 840 515.729 840 545Z" fill="white"/>
<path d="M854 587C854 616.271 877.729 640 907 640C936.271 640 960 616.271 960 587C960 557.729 936.271 534 907 534C877.729 534 854 557.729 854 587Z" fill="white"/>
<path d="M473.5 497C473.5 513.569 486.931 527 503.5 527C520.069 527 533.5 513.569 533.5 497C533.5 480.431 520.069 467 503.5 467C486.931 467 473.5 480.431 473.5 497Z" fill="white"/>
<path d="M380 493C380 509.569 393.431 523 410 523C426.569 523 440 509.569 440 493C440 476.431 426.569 463 410 463C393.431 463 380 476.431 380 493Z" fill="white"/>
<path d="M443 470C443 484.359 454.641 496 469 496C483.359 496 495 484.359 495 470C495 455.641 483.359 444 469 444C454.641 444 443 455.641 443 470Z" fill="white"/>
<path d="M421 462C421 471.941 429.059 480 439 480C448.941 480 457 471.941 457 462C457 452.059 448.941 444 439 444C429.059 444 421 452.059 421 462Z" fill="white"/>
<path d="M368 448.5C368 465.897 382.103 480 399.5 480C416.897 480 431 465.897 431 448.5C431 431.103 416.897 417 399.5 417C382.103 417 368 431.103 368 448.5Z" fill="white"/>
<path d="M317 467C317 487.987 334.013 505 355 505C375.987 505 393 487.987 393 467C393 446.013 375.987 429 355 429C334.013 429 317 446.013 317 467Z" fill="white"/>
<path d="M280 505C280 525.987 297.013 543 318 543C338.987 543 356 525.987 356 505C356 484.013 338.987 467 318 467C297.013 467 280 484.013 280 505Z" fill="white"/>
<path d="M335 522.5C335 547.077 354.923 567 379.5 567C404.077 567 424 547.077 424 522.5C424 497.923 404.077 478 379.5 478C354.923 478 335 497.923 335 522.5Z" fill="white"/>
<path d="M410 518.5C410 543.077 429.923 563 454.5 563C479.077 563 499 543.077 499 518.5C499 493.923 479.077 474 454.5 474C429.923 474 410 493.923 410 518.5Z" fill="white"/>
<path d="M53 512C53 528.569 39.5685 542 23 542C6.43146 542 -7 528.569 -7 512C-7 495.431 6.43146 482 23 482C39.5685 482 53 495.431 53 512Z" fill="white"/>
<path d="M146.5 508C146.5 524.569 133.069 538 116.5 538C99.9315 538 86.5 524.569 86.5 508C86.5 491.431 99.9315 478 116.5 478C133.069 478 146.5 491.431 146.5 508Z" fill="white"/>
<path d="M83.5 485C83.5 499.359 71.8594 511 57.5 511C43.1406 511 31.5 499.359 31.5 485C31.5 470.641 43.1406 459 57.5 459C71.8594 459 83.5 470.641 83.5 485Z" fill="white"/>
<path d="M105.5 477C105.5 486.941 97.4411 495 87.5 495C77.5589 495 69.5 486.941 69.5 477C69.5 467.059 77.5589 459 87.5 459C97.4411 459 105.5 467.059 105.5 477Z" fill="white"/>
<path d="M158.5 463.5C158.5 480.897 144.397 495 127 495C109.603 495 95.5 480.897 95.5 463.5C95.5 446.103 109.603 432 127 432C144.397 432 158.5 446.103 158.5 463.5Z" fill="white"/>
<path d="M209.5 482C209.5 502.987 192.487 520 171.5 520C150.513 520 133.5 502.987 133.5 482C133.5 461.013 150.513 444 171.5 444C192.487 444 209.5 461.013 209.5 482Z" fill="white"/>
<path d="M246.5 520C246.5 540.987 229.487 558 208.5 558C187.513 558 170.5 540.987 170.5 520C170.5 499.013 187.513 482 208.5 482C229.487 482 246.5 499.013 246.5 520Z" fill="white"/>
<path d="M191.5 537.5C191.5 562.077 171.577 582 147 582C122.423 582 102.5 562.077 102.5 537.5C102.5 512.923 122.423 493 147 493C171.577 493 191.5 512.923 191.5 537.5Z" fill="white"/>
<path d="M116.5 533.5C116.5 558.077 96.5767 578 72 578C47.4233 578 27.5 558.077 27.5 533.5C27.5 508.923 47.4233 489 72 489C96.5767 489 116.5 508.923 116.5 533.5Z" fill="white"/>
</g>
</g>
</g>
<g id="mountains">
<g id="mountain-group-2">
<g id="mountain-3">
<path id="Vector 4" d="M1460.5 406.075C1527.83 496.806 1664.5 680.125 1672.5 687.554L1714.5 732.823L1672.5 958L774 984.5L736.5 962L683 734L880 521.568L971.5 436.254L1010.5 357.5L1065.5 473.398L1161 383.441L1247.5 225L1288.5 383.441L1365 503.577L1426.5 473.398L1460.5 406.075Z" fill="url(#paint1_linear_5_214)"/>
<path id="Vector 5" d="M1550 482.684C1617.33 573.415 1721.5 680.125 1729.5 687.554L1771.5 732.823L1729.5 984.5L1266.5 1045.5L774 984.5L726 732.823L824 609.784L917.5 540.721L982 461.79L1010.5 357.5L1061 421L1122.5 473.398L1218 383.441L1247.5 225L1313 306L1362.5 373.5L1422 503.577L1455 469.916L1460.5 406.075L1550 482.684Z" fill="url(#paint2_linear_5_214)"/>
</g>
<g id="mountain-4">
<path id="Vector 4_2" d="M1587.87 515.765C1641.18 587.609 1780.14 754.272 1786.47 760.155L1955 901.5L961 1026L865.5 928.5L936 796L1014 688.5L1152.37 565.677L1187.37 541.881L1244.87 511.122L1296.87 541.881L1318.87 505.318L1357.87 482.684L1414.37 437.415L1426.87 464.692L1487.87 551.167H1534.87L1571.87 526.211L1587.87 515.765Z" fill="#190A37"/>
<path id="Vector 5_2" d="M1689.47 597.931C1742.79 669.775 1825.27 754.272 1831.61 760.155L1955 901.5L1745 1010H1204L958.5 1023.5L1025.5 747L1046.5 695L1183.37 566.257L1225.37 544.203L1245.37 511.702L1318.37 537.269L1338.37 515.765L1391.37 493.711L1414.37 437.415L1471.37 506.479L1521.37 541.301L1575.37 551.748L1588.12 515.765L1618.6 537.269L1689.47 597.931Z" fill="url(#paint3_linear_5_214)"/>
</g>
</g>
<g id="mountain-group">
<g id="mountain-1">
<path id="Vector 4_3" d="M82 474C14.6667 552.167 -122 710.1 -130 716.5L-172 755.5L878.5 1028L895.5 1004.5L873.5 755.5L662.5 573.5L571 500L532 432L477 532L381.5 454.5L295 318L254 454.5L177.5 558L116 532L82 474Z" fill="#270C37"/>
<path id="Vector 5_3" d="M-14.5 537C-81.8333 615.167 -159 664.6 -167 671L-265.5 755.5L-306 894L-280 923.5L788 939L766.5 755.5L668.5 649.5L575 590L510.5 522L532 432L470.5 490.5L420 532L405 534L274.5 454.5L295 318L242.5 394.5L159.5 491L120.5 554L98 522.5L82 474L-14.5 537Z" fill="#4A2C7B"/>
<path id="Vector 6" d="M-13 561.5C-80.3333 639.667 -141.5 677.6 -149.5 684L-229 755.5L-280 923.5L82 1046.5L878.5 1028L816.5 755.5L718.5 649.5L625 590L560.5 522L532 432L491 489.5L420 532L324.5 454.5L295 318L259.5 393L204.5 462L120 549.5L99 522L82 474L-13 561.5Z" fill="url(#paint4_linear_5_214)"/>
</g>
<g id="mountain-2">
<path id="Vector 4_4" d="M94 578.5C40.683 640.395 -98.2735 783.979 -104.608 789.047L-137.865 819.929V925.5L759.5 1016.5L684 826.5L639.865 789.047L560.5 677.5L512 619L483 602.5L436.5 575L385 601L363 569.5L324 550L267.5 511L255 534.5L194 609H147L110 587.5L94 578.5Z" fill="#260A37"/>
<path id="Vector 5_4" d="M-17 649C-70.317 710.895 -158.408 783.979 -164.743 789.047L-194.5 829L-219 933.5L-226 982L629.865 819.929L552.265 735.994L483.5 622L441.5 603L436.5 575L348.5 597.027L328.5 578.5L275.5 559.5L267.5 511L195.5 570.5L145.5 600.5L106.5 609.5L94 578.5L39 608.5L-17 649Z" fill="#6A2B9B"/>
<path id="Vector 6_2" d="M-7.60817 649.288C-60.9252 711.183 -143.408 783.979 -149.743 789.047L-184.5 862.5L-226 982L-136 994L41.5 1011H410H728.5L644.865 819.929L567.265 735.994L503.5 632.5L456.5 603L436.5 575L415 589L352 599L343.5 578.5L290.5 559.5L267.5 511L230.5 578.5L144 625L106.5 609.5L94 578.5L66 609.5L-7.60817 649.288Z" fill="url(#paint5_linear_5_214)"/>
</g>
</g>
</g>
</g>
<defs>
<linearGradient id="paint0_linear_5_214" x1="389.5" y1="-565.5" x2="829" y2="1136" gradientUnits="userSpaceOnUse">
<stop stop-color="#B42E2E"/>
<stop offset="0.382564" stop-color="#BD473F"/>
<stop offset="0.708333" stop-color="#65416A"/>
<stop offset="1" stop-color="#163C91"/>
</linearGradient>
<linearGradient id="paint1_linear_5_214" x1="1191.75" y1="225" x2="1191.75" y2="732.823" gradientUnits="userSpaceOnUse">
<stop stop-color="#270C37"/>
<stop offset="1" stop-color="#200531"/>
</linearGradient>
<linearGradient id="paint2_linear_5_214" x1="1248.75" y1="225" x2="1216" y2="662" gradientUnits="userSpaceOnUse">
<stop stop-color="#354992"/>
<stop offset="1" stop-color="#360437"/>
</linearGradient>
<linearGradient id="paint3_linear_5_214" x1="1450.93" y1="437.415" x2="1450.93" y2="796" gradientUnits="userSpaceOnUse">
<stop stop-color="#7A41C1"/>
<stop offset="1" stop-color="#350233"/>
</linearGradient>
<linearGradient id="paint4_linear_5_214" x1="293.75" y1="318" x2="293.75" y2="755.5" gradientUnits="userSpaceOnUse">
<stop stop-color="#321D6F"/>
<stop offset="1" stop-color="#350845"/>
</linearGradient>
<linearGradient id="paint5_linear_5_214" x1="230.933" y1="511" x2="230.933" y2="819.929" gradientUnits="userSpaceOnUse">
<stop stop-color="#602B96"/>
<stop offset="1" stop-color="#430857"/>
</linearGradient>
</defs>
</svg>
